<?xml version="1.0" encoding="utf-8"?>
<!-- Generator: Adobe Illustrator 26.2.1, SVG Export Plug-In . SVG Version: 6.00 Build 0)  -->
<svg version="1.1" id="Layer_1" xmlns="http://www.w3.org/2000/svg" xmlns:xlink="http://www.w3.org/1999/xlink" x="0px" y="0px"
	 viewBox="0 0 1200 1200" style="enable-background:new 0 0 1200 1200;" xml:space="preserve">
<style type="text/css">
	.st0{fill:#FFFFFF;}
	.st1{fill:#EDEDD3;}
	.st2{fill:#BCD167;}
	.st3{fill:#E6EBB7;}
	.st4{fill:#154D72;}
	.st5{fill:#9FB32A;}
	.st6{fill:none;}
</style>
<g>
	<path class="st3" d="M469.68,714.54c-7.35,5.07-13,12.41-15.39,21.03c-5.32,19.19,6.61,41.5,25.52,47.7
		c-14.14,13.86-17.76,37.16-8.63,54.7c7.94,15.33,25.15,25.18,42.37,24.95c-5.15,4.34-11.49,7.12-18.11,7.62
		c4.32,10.42,3.14,23.3-4.2,32.08c-10.59,12.51-31.86,14.03-44.11,3.02c2.35,15.59-11.21,31.61-26.97,31.86
		s-29.84-15.26-28.04-30.95c-7.63,11.96-24.28,17.21-37.42,11.73c-13.09-5.53-21.06-21.16-17.85-35
		c-14.17,2.63-29.63-4.9-36.25-17.64c-6.63-12.83-3.93-29.8,6.3-39.92c-13.76-4.52-22.48-20.79-18.63-34.74
		c3.91-13.91,19.71-23.39,33.86-20.21c-9.06-11.28-6.55-29.98,5.17-38.47c7.99-5.83,19.09-6.15,28.05-1.98
		c4.03,2.02,7.68,4.93,10.2,8.73c0.33-14.06,6.47-28.86,18.74-35.69c6.23-3.43,13.91-3.96,20.64-1.97c6.73,2,12.42,6.54,14.68,13.16
		c0.64-0.75,1.32-1.56,2.07-2.23c10.19-10.07,27.28-12.44,39.67-5.1C464.57,709.1,467.33,711.63,469.68,714.54z"/>
	<path class="st3" d="M761.38,701.77c7.87,19.24-0.27,43.73-18.14,54.34c4.43,0.78,8.66,2.34,12.55,4.42
		c15.59,8.48,26.11,26.45,24.28,44.24c-2.13,20.78-20.77,38.32-41.39,39.93c5.9,14.35,4.27,32.02-5.81,44.04
		c-14.55,17.3-43.75,19.33-60.55,4.18c3.24,21.43-15.39,43.43-37.06,43.78c-21.57,0.34-40.95-21.06-38.42-42.52
		c-10.51,16.46-33.42,23.63-51.44,16.06c-17.97-7.53-28.87-28.98-24.44-47.99c-2.42,0.45-4.95,0.71-7.41,0.67
		c-17.22,0.23-34.43-9.62-42.37-24.95c-9.13-17.54-5.5-40.84,8.63-54.7c-18.91-6.2-30.84-28.51-25.52-47.7
		c2.39-8.62,8.05-15.96,15.39-21.03c2.98-2.1,6.3-3.83,9.7-5.12c6.81-2.47,14.22-3.24,21.32-1.57
		c-11.48-14.43-9.33-37.52,3.85-50.14c1.02-0.99,2.05-1.87,3.23-2.72c16.06-11.76,41.5-7.26,52.5,9.27
		c0.31-11.95,3.64-24.31,10.24-34.18c3.95-6.09,9.14-11.24,15.61-14.83c5.17-2.94,11.22-4.29,17.24-4.29
		c6.21-0.02,12.51,1.52,17.86,4.38c6.14,3.35,11.08,8.45,13.35,15.28c2.59-3.17,5.63-5.88,8.95-8.06
		c14.05-9.49,33.65-10.67,48.25-2.01c18.19,10.77,26.56,35.53,18.61,55.09C730.63,670.74,753.56,682.47,761.38,701.77z"/>
	<path class="st2" d="M659.52,559.37c-11.98,4.2-22.05,13.91-25.49,26.18c-3.59,12.88,0.6,27.17,9.49,37
		c-3.33,2.18-6.36,4.89-8.95,8.06c-2.27-6.83-7.21-11.93-13.35-15.28c-5.35-2.86-11.64-4.4-17.86-4.38c0,0-47.32-37.47-67.64-38.28
		c0,0,14.22,38.41,34.8,57.4c-6.6,9.87-9.93,22.23-10.24,34.18c-11-16.53-36.43-21.03-52.5-9.27c0,0-11.1-16.52-26.9-34.8
		c-8.99,34.13-3.52,76.43-1.5,89.24c-3.4,1.29-6.72,3.01-9.7,5.12c-2.35-2.91-5.11-5.44-8.33-7.33c-12.39-7.34-29.48-4.97-39.67,5.1
		c-0.75,0.66-1.43,1.47-2.07,2.23c-2.26-6.63-7.95-11.17-14.68-13.16c0,0,13.83-105-47.64-157.03
		c-61.46-52.03-116.22-89.68-116.22-89.68s-11.96-61.86,43.86-127.8c55.82-65.94,118.8-64.36,118.8-64.36s46.18,47.79,107.64,99.82
		c61.46,52.03,127.09,30.48,127.09,30.48c-1.12,4.05-1.21,8.32-0.37,12.46c2.03,9.96,9.25,19.03,18.94,22.23
		c-10.24,10.12-12.93,27.09-6.26,39.87c0,0-70.17-14.52-87.62,14.4c-17.18,28.49,108.29,66.03,112.35,67.25
		c0.05,0.05,0.05,0.05,0.05,0.05c1.21,3.16,2.87,6.13,4.99,8.76c-7-1.57-14.21-0.92-20.98,1.49L659.52,559.37z"/>
	<path class="st0" d="M740.08,514.28c-0.35-0.57-0.74-1.09-1.19-1.66c0.51-0.49,0.92-0.98,1.38-1.52
		C740.11,512.17,740.14,513.22,740.08,514.28z"/>
	<path class="st3" d="M691.78,620.54c-14.6-8.66-34.2-7.48-48.25,2.01c-8.89-9.84-13.08-24.12-9.49-37
		c3.44-12.27,13.51-21.97,25.49-26.18l0.05-0.05c6.77-2.42,13.98-3.07,20.98-1.49c-2.12-2.63-3.77-5.6-4.99-8.76c0,0,0,0-0.05-0.05
		c-5.87-15.15-1.25-34.38,12.03-44.05c0.47-0.34,0.95-0.68,1.47-0.97c15.5-10.11,38.69-6.02,49.89,8.63
		c0.45,0.56,0.84,1.08,1.19,1.66c0.06-1.06,0.03-2.11,0.19-3.17c1.23-18.4,9.6-37.04,25.61-45.89c16.91-9.38,42.31-2.97,48.44,15.37
		c6.83-8.29,16.82-13.53,27.4-15.31c0.05,0.05,0.05,0.05,0.05,0.05c6.57-1.1,13.37-0.81,19.83,0.96c3.44,0.97,6.86,2.39,10.03,4.23
		c18.09,10.78,26.46,35.54,18.51,55.1c20.24-4.89,43.17,6.84,51.09,26.13c7.82,19.3-0.33,43.68-18.18,54.39
		c22.02,3.83,39.08,26.32,36.82,48.56c-2.13,20.78-20.76,38.42-41.38,40.03c5.9,14.35,4.17,32.03-5.87,43.99
		c-14.51,17.24-43.71,19.27-60.5,4.23c3.23,21.33-15.44,43.39-37.01,43.73c-21.67,0.35-40.99-21-38.52-42.51
		c-4.83,7.67-12.33,13.25-20.79,16.36c-3.88-2.08-8.12-3.64-12.55-4.42c17.86-10.61,26-35.09,18.14-54.34
		c-7.82-19.3-30.75-31.03-50.99-26.13C718.34,656.08,709.96,631.31,691.78,620.54z"/>
	<path class="st3" d="M841.72,465.28c-10.58,1.78-20.57,7.02-27.4,15.31c-6.14-18.34-31.53-24.75-48.44-15.37
		c-16,8.85-24.38,27.49-25.61,45.89c-0.46,0.54-0.87,1.02-1.38,1.52c-11.19-14.66-34.39-18.74-49.89-8.63
		c-2.6-5.9-3.5-12.59-2.02-18.93c-9.23,1.72-19.02-0.92-26.51-6.52c-4.1-2.92-7.43-6.75-9.7-11.17
		c-6.68-12.78-3.98-29.74,6.26-39.87c-9.69-3.2-16.91-12.28-18.94-22.23c-0.85-4.14-0.75-8.41,0.37-12.46
		c3.9-14.01,19.65-23.44,33.8-20.25c-9.01-11.33-6.5-29.93,5.17-38.47c11.67-8.54,30.19-5.27,38.25,6.74
		c0.33-14.06,6.47-28.86,18.78-35.74c12.32-6.79,30.85-2.11,35.31,11.2c9.74-11.84,28.46-15.15,41.7-7.28
		c13.23,7.77,19.29,25.86,13.56,40.07c14.74-3.53,31.39,5.01,37.17,19.06c5.68,14.06-0.21,31.84-13.25,39.6
		c16.02,2.83,28.46,19.19,26.85,35.41c-0.98,9.35-6.54,17.79-14.22,23.14c-6.46-1.77-13.25-2.06-19.83-0.96
		C841.77,465.33,841.77,465.33,841.72,465.28z"/>
	<g>
		<path class="st4" d="M419.77,942.31c-8.74,0-17.38-4.02-23.78-11.07c-3.66-4.03-6.26-8.7-7.65-13.59
			c-9.89,7.61-23.75,9.95-35.49,5.06c-13.36-5.64-21.96-19.82-21.51-34.1c-0.1,0-0.21,0-0.31,0c-14.19,0-28.08-8.05-34.69-20.76
			c-6.59-12.75-5.22-28.79,2.88-40.43c-12.4-7.52-19.47-23.61-15.57-37.73c3.71-13.23,16.58-22.98,30.11-24.21
			c-1.75-4.83-2.33-10.22-1.6-15.64c1.18-8.82,5.68-16.63,12.33-21.45c9.02-6.59,21.94-7.55,32.91-2.45
			c1.63,0.82,3.15,1.72,4.56,2.72c2.39-11.31,8.46-23.09,20.01-29.52c7.2-3.98,16.07-4.83,24.35-2.38
			c6.12,1.82,11.16,5.28,14.53,9.85c11.79-9.68,29.77-11.35,42.98-3.53c3.54,2.09,6.79,4.93,9.62,8.45
			c0.84,1.04,1.21,2.39,1.02,3.71c-0.19,1.33-0.93,2.51-2.03,3.27c-6.7,4.62-11.49,11.14-13.49,18.36
			c-4.67,16.85,5.78,36.4,22.38,41.84c1.6,0.52,2.81,1.84,3.19,3.48c0.38,1.64-0.12,3.36-1.32,4.53
			c-12.56,12.31-15.88,33.39-7.74,49.04c7.03,13.59,22.14,22.56,38.04,22.36c2.19-0.24,3.86,1.23,4.57,3.13
			c0.71,1.9,0.15,4.05-1.41,5.36c-4.42,3.72-9.57,6.38-14.93,7.75c2.69,11.12,0.24,22.93-6.8,31.35
			c-5.92,6.99-14.97,11.37-24.84,12.04c-6.49,0.47-12.82-0.75-18.33-3.36c-1,5.71-3.61,11.26-7.65,16.03
			c-6.27,7.4-14.97,11.73-23.87,11.88C420.08,942.3,419.92,942.31,419.77,942.31z M392.11,901.73c0.54,0,1.08,0.09,1.61,0.28
			c2.11,0.75,3.43,2.86,3.17,5.08c-0.7,6.1,1.57,12.55,6.22,17.68c4.65,5.13,10.86,7.91,16.96,7.91c6.13-0.1,12.21-3.19,16.68-8.48
			c4.48-5.29,6.52-11.8,5.61-17.86c-0.3-2.01,0.69-3.99,2.48-4.95c1.78-0.95,3.99-0.69,5.5,0.66c4.85,4.37,11.78,6.57,19.08,6.09
			c7.29-0.5,13.9-3.65,18.13-8.64c5.86-7.01,7.25-17.92,3.43-27.12c-0.59-1.42-0.46-3.05,0.35-4.36c0.81-1.32,2.2-2.16,3.74-2.28
			c0.88-0.07,1.76-0.18,2.64-0.35c-13.12-4.07-24.57-13.17-30.8-25.21c-9.11-17.49-6.87-39.63,4.93-55.13
			c-17.39-9.43-27.53-31.48-22.19-50.77c2.13-7.69,6.64-14.73,12.91-20.27c-1.16-1.02-2.38-1.91-3.64-2.66
			c-10.33-6.1-25.18-4.18-33.85,4.38c-0.76,0.69-1.27,1.32-1.76,1.89c-1.12,1.33-2.87,1.97-4.58,1.63c-1.7-0.32-3.11-1.53-3.67-3.17
			c-1.61-4.73-5.8-8.42-11.49-10.1c-5.74-1.7-12.08-1.11-16.96,1.57c-11.57,6.45-15.98,20.55-16.24,31.59
			c-0.05,2.1-1.46,3.92-3.48,4.51c-2.02,0.58-4.18-0.22-5.34-1.96c-1.88-2.84-4.77-5.29-8.35-7.08c-7.71-3.57-16.81-2.99-23.06,1.56
			c-4.53,3.29-7.61,8.73-8.44,14.94c-0.83,6.21,0.69,12.28,4.19,16.63c1.28,1.59,1.41,3.83,0.33,5.56
			c-1.08,1.74-3.13,2.62-5.14,2.15c-11.51-2.58-24.96,5.42-28.16,16.81c-3.15,11.4,4.23,25.17,15.49,28.86
			c1.59,0.53,2.8,1.84,3.18,3.47c0.38,1.64-0.11,3.35-1.3,4.53c-8.73,8.63-11.05,23.37-5.41,34.29
			c5.65,10.85,19.02,17.38,31.09,15.11c1.57-0.29,3.23,0.23,4.36,1.41c1.12,1.17,1.57,2.83,1.21,4.41
			c-2.69,11.62,4.05,24.85,15.03,29.48c10.96,4.56,25.09,0.14,31.49-9.89C388.96,902.54,390.51,901.73,392.11,901.73z"/>
	</g>
	<g>
		<path class="st4" d="M634.76,941.52c-11.49,0-22.88-5.33-31.33-14.69c-5.48-6.07-9.15-13.19-10.73-20.56
			c-13.19,11.49-32.77,15.29-49.17,8.41c-17.92-7.51-29.61-27.62-28.25-46.96c-0.62,0.02-1.25,0.02-1.83,0.01
			c-19.26-0.15-37.89-10.82-46.55-27.55c-9.11-17.49-6.87-39.63,4.93-55.13c-17.39-9.43-27.53-31.48-22.19-50.77
			c2.61-9.39,8.75-17.81,17.3-23.7c3.23-2.28,6.86-4.19,10.73-5.66c4.69-1.7,9.46-2.62,14.11-2.75c-6.7-15.71-3.24-35.8,9.44-47.94
			c1.17-1.13,2.37-2.17,3.75-3.16c8.68-6.36,20.28-8.85,31.83-6.8c7.43,1.32,14.24,4.42,19.74,8.87c1.64-9.5,5.05-18.39,9.97-25.75
			c4.54-7,10.36-12.52,17.27-16.36c5.63-3.2,12.41-4.9,19.57-4.9c7.18,0.07,14.13,1.74,20.13,4.95c5.28,2.88,9.47,6.7,12.41,11.24
			c1.57-1.39,3.24-2.66,4.99-3.8c15.88-10.74,37.34-11.6,53.34-2.12c17.88,10.59,27.18,33.27,22.95,53.39
			c20.27-1.17,40.98,11.22,48.66,30.17c7.49,18.33,1.98,40.74-12.18,54.23c1.48,0.62,2.96,1.32,4.4,2.1
			c17.76,9.65,28.77,29.79,26.8,48.98c-2.15,20.96-19.09,38.97-39.76,43.36c4.24,15.26,1.12,31.69-8.54,43.21
			c-7.78,9.25-19.74,15.07-32.8,15.96c-9.46,0.7-18.72-1.33-26.51-5.55c-0.94,8.36-4.54,16.6-10.45,23.58
			c-8.28,9.78-19.75,15.5-31.46,15.69C635.15,941.52,634.95,941.52,634.76,941.52z M596.84,889.37c0.54,0,1.09,0.09,1.62,0.28
			c2.11,0.75,3.43,2.87,3.16,5.09c-1.04,8.84,2.22,18.18,8.95,25.63c6.74,7.45,15.77,11.93,24.62,11.51
			c8.94-0.15,17.79-4.62,24.27-12.28c6.49-7.66,9.44-17.12,8.1-25.96c-0.3-2.01,0.69-3.99,2.48-4.96c1.8-0.96,3.99-0.7,5.5,0.66
			c7.04,6.34,17.05,9.56,27.55,8.85c10.48-0.72,19.99-5.3,26.09-12.55c8.48-10.11,10.51-25.83,5.04-39.11
			c-0.59-1.42-0.46-3.04,0.35-4.35c0.8-1.31,2.19-2.16,3.72-2.28c18.53-1.45,35.11-17.44,36.98-35.63
			c1.59-15.43-7.37-31.68-21.79-39.52c-3.58-1.92-7.32-3.24-11.09-3.91c-1.98-0.35-3.53-1.89-3.89-3.87c-0.36-1.98,0.55-3.98,2.27-5
			c15.67-9.31,23.06-31.46,16.14-48.39c0,0,0,0,0-0.01c-6.96-17.2-27.34-27.62-45.4-23.27c-1.77,0.43-3.6-0.16-4.78-1.54
			c-1.18-1.37-1.49-3.28-0.81-4.95c7.11-17.47-0.35-39.51-16.61-49.14c-12.66-7.49-30.37-6.74-43.1,1.86
			c-3.02,1.97-5.66,4.36-7.92,7.12c-1.11,1.36-2.87,2-4.6,1.69c-1.72-0.32-3.14-1.55-3.69-3.21c-2.19-6.59-7.24-10.48-11.09-12.58
			c-4.56-2.44-10.07-3.79-15.47-3.79c-0.02,0-0.05,0-0.08,0c-5.51,0-10.65,1.26-14.86,3.66c-5.55,3.09-10.24,7.55-13.95,13.27
			c-5.82,8.7-9.16,19.94-9.46,31.69c-0.06,2.1-1.46,3.92-3.48,4.5c-2.02,0.57-4.18-0.21-5.34-1.96
			c-4.52-6.78-12.22-11.58-21.15-13.16c-8.96-1.56-17.89,0.28-24.5,5.11c-1.02,0.74-1.88,1.48-2.73,2.3
			c-11.55,11.06-13.14,31.47-3.43,43.69c1.27,1.6,1.39,3.84,0.3,5.57c-1.09,1.73-3.16,2.58-5.16,2.11
			c-5.86-1.37-12.27-0.88-18.59,1.41c-3.01,1.14-6,2.71-8.57,4.53c-6.74,4.65-11.53,11.17-13.53,18.38
			c-4.67,16.85,5.78,36.4,22.38,41.84c1.6,0.52,2.81,1.84,3.19,3.48c0.38,1.64-0.12,3.36-1.32,4.53
			c-12.56,12.31-15.88,33.39-7.74,49.04c7.03,13.59,22.14,22.56,38.04,22.36c2.13,0.03,4.3-0.15,6.59-0.59
			c1.61-0.29,3.24,0.23,4.36,1.41c1.12,1.18,1.58,2.84,1.21,4.42c-3.91,16.78,5.79,35.83,21.62,42.46
			c15.85,6.65,36.27,0.28,45.53-14.21C593.69,890.18,595.23,889.37,596.84,889.37z"/>
	</g>
	<g>
		<path class="st4" d="M469.69,719.35c-1.41,0-2.81-0.62-3.75-1.79c-2.11-2.61-4.47-4.7-7.02-6.2c-10.33-6.1-25.18-4.18-33.85,4.38
			c-0.76,0.69-1.27,1.32-1.76,1.89c-1.12,1.33-2.87,1.97-4.58,1.63c-1.7-0.32-3.11-1.53-3.67-3.17c-1.61-4.73-5.8-8.42-11.49-10.1
			c-2.27-0.67-3.71-2.89-3.4-5.24c0.13-1.02,12.73-103.04-45.98-152.73c-60.56-51.26-115.29-89.01-115.83-89.39
			c-1.04-0.72-1.76-1.81-2-3.05c-0.51-2.62-11.75-64.89,44.9-131.82c56.66-66.92,119.96-66.08,122.6-66.06
			c1.26,0.03,2.46,0.56,3.34,1.47c0.46,0.48,46.74,48.23,107.29,99.49c58.72,49.72,121.84,29.8,122.48,29.59
			c1.66-0.55,3.53-0.14,4.82,1.09c1.28,1.23,1.79,3.05,1.32,4.76c-0.89,3.25-0.99,6.79-0.29,10.22c1.76,8.61,8.08,16.1,15.73,18.63
			c1.59,0.53,2.8,1.84,3.18,3.47c0.38,1.63-0.11,3.34-1.3,4.52c-8.74,8.65-11.05,23.36-5.38,34.22c0.86,1.65,0.69,3.64-0.43,5.13
			c-1.12,1.48-2.99,2.17-4.81,1.81c-18.6-3.83-69.66-9.12-82.52,12.17c-1.09,1.8-1.21,3.56-0.39,5.68
			c7.48,19.34,75.22,44.09,110,54.47c0.62,0.18,1.2,0.5,1.71,0.91c0.63,0.53,1.17,1.25,1.47,2.02c1.08,2.8,2.5,5.31,4.24,7.46
			c1.28,1.59,1.42,3.83,0.34,5.56c-1.08,1.74-3.12,2.6-5.14,2.15c-5.69-1.27-11.85-0.88-17.83,1.16c-0.17,0.09-0.35,0.17-0.54,0.23
			c-10.95,3.84-19.56,12.63-22.45,22.94c-2.99,10.74,0.31,23.49,8.43,32.48c0.94,1.04,1.38,2.44,1.2,3.84
			c-0.18,1.39-0.96,2.64-2.14,3.41c-2.96,1.94-5.61,4.33-7.86,7.09c-1.11,1.36-2.87,2-4.6,1.69c-1.72-0.32-3.14-1.55-3.69-3.21
			c-2.19-6.59-7.24-10.48-11.09-12.58c-4.56-2.44-10.07-3.79-15.47-3.79c-0.02,0-0.05,0-0.08,0c0,0,0,0-0.01,0
			c-1.09,0-2.14-0.37-2.99-1.04c-10.91-8.64-39.07-29.09-56.69-35.39c5.3,12.11,16.32,34.47,30.1,47.2
			c1.74,1.61,2.05,4.24,0.74,6.21c-5.78,8.65-9.13,19.88-9.43,31.63c-0.06,2.1-1.46,3.92-3.48,4.5c-2.02,0.57-4.18-0.21-5.34-1.96
			c-4.52-6.78-12.22-11.58-21.15-13.16c-8.96-1.56-17.89,0.28-24.5,5.11c-1.06,0.78-2.36,1.1-3.67,0.86
			c-1.29-0.23-2.43-0.97-3.16-2.06c-0.09-0.14-8.25-12.23-20.32-26.94c-5.76,31.47-1.06,67.01,0.66,77.94
			c0.36,2.26-0.92,4.45-3.05,5.25c-3.07,1.16-6.06,2.74-8.63,4.55C471.61,719.07,470.65,719.35,469.69,719.35z M445.18,698.13
			c6.51,0,13,1.61,18.63,4.94c2.39,1.41,4.64,3.16,6.72,5.23c1.15-0.66,2.33-1.28,3.54-1.85c-2.26-15.92-6.35-55.19,2.16-87.49
			c0.46-1.72,1.83-3.06,3.57-3.46c1.75-0.38,3.56,0.19,4.73,1.54c11.45,13.25,20.37,25.45,24.59,31.43
			c8.08-4.38,17.92-5.91,27.69-4.18c7.43,1.32,14.24,4.42,19.74,8.87c1.39-8.07,4.06-15.7,7.85-22.32
			c-19.6-20.17-32.62-54.95-33.19-56.49c-0.56-1.51-0.33-3.2,0.62-4.5c0.95-1.3,2.5-2.03,4.08-1.98
			c20.01,0.8,60.31,31.41,69.15,38.31c6.44,0.25,12.92,1.97,18.42,4.92c5.28,2.88,9.47,6.7,12.41,11.24
			c0.25-0.22,0.5-0.44,0.75-0.65c-7.95-11.04-10.73-24.96-7.25-37.43c3.68-13.12,14.38-24.26,27.99-29.23
			c0.18-0.09,0.37-0.17,0.57-0.24c3.86-1.38,7.8-2.22,11.72-2.51c-24.59-7.59-101.86-33.26-111.76-58.87
			c-1.89-4.89-1.5-9.77,1.12-14.12c15.34-25.43,64.45-21.02,84.34-18.07c-2.63-10.87-0.44-22.8,5.97-32
			c-7.98-4.84-13.99-13.29-15.96-22.98c-0.47-2.31-0.69-4.65-0.65-6.97c-19.16,4.16-72.94,10.36-124.46-33.26
			c-54.88-46.46-98.13-90.08-106.52-98.64c-10.68,0.46-64.9,5.63-113.14,62.62c-48.24,56.99-44.39,111.32-43.07,121.92
			c9.83,6.86,59.98,42.31,114.87,88.77c56.77,48.06,51.65,137.62,49.72,157.5c4.4,1.96,8.06,4.86,10.7,8.44
			C427.6,701.05,436.41,698.13,445.18,698.13z M659.53,559.37h0.09H659.53z"/>
	</g>
	<g>
		<path class="st4" d="M740.08,519.09c-1.65,0-3.23-0.86-4.12-2.32c-0.24-0.4-0.53-0.77-0.85-1.16c-1.54-1.95-1.35-4.74,0.44-6.45
			c0.39-0.38,0.69-0.75,1.03-1.16c1.39-1.64,3.71-2.16,5.66-1.28c1.96,0.89,3.1,2.97,2.78,5.1c-0.08,0.51-0.08,1.01-0.09,1.51
			l-0.05,1.25c-0.13,2.1-1.61,3.87-3.65,4.37C740.85,519.04,740.46,519.09,740.08,519.09z"/>
	</g>
	<g>
		<path class="st4" d="M814.58,791.49c-11.5,0-22.9-5.31-31.35-14.63c-5.5-6.07-9.18-13.21-10.78-20.62
			c-4.3,3.74-9.4,6.75-15.01,8.81c-1.28,0.48-2.72,0.38-3.93-0.28c-3.6-1.93-7.34-3.25-11.11-3.92c-1.98-0.35-3.53-1.89-3.89-3.87
			c-0.36-1.98,0.55-3.98,2.27-5c15.67-9.31,23.06-31.46,16.14-48.39c-6.97-17.2-27.37-27.66-45.41-23.28
			c-1.77,0.43-3.6-0.16-4.78-1.54c-1.18-1.37-1.49-3.28-0.81-4.95c7.11-17.47-0.35-39.51-16.61-49.14l0,0
			c-12.67-7.51-30.38-6.73-43.1,1.86c-1.98,1.34-4.65,1.02-6.26-0.77c-10.43-11.55-14.48-27.45-10.56-41.52
			c3.68-13.12,14.39-24.28,28.01-29.24c0.18-0.09,0.36-0.17,0.54-0.23c4.5-1.61,9.12-2.48,13.68-2.61c-0.13-0.3-0.25-0.6-0.38-0.9
			c-0.09-0.17-0.17-0.34-0.24-0.52c-6.84-17.66-0.96-39.01,13.68-49.68c0.74-0.52,1.33-0.94,1.97-1.29
			c14.85-9.71,35.85-7.87,49.66,3.36c3.05-18.69,12.92-34.23,27.21-42.13c10.26-5.69,23.78-6.44,35.26-1.98
			c7.3,2.84,13.08,7.44,16.84,13.29c6.87-6.04,15.61-10.16,25.26-11.78c0.24-0.04,0.49-0.06,0.74-0.07
			c7.11-1.09,14.43-0.69,21.21,1.17c3.98,1.12,7.73,2.7,11.18,4.71c17.85,10.63,27.11,33.31,22.89,53.42
			c20.13-1.14,40.98,11.22,48.75,30.14c7.42,18.3,1.89,40.73-12.22,54.26c19.69,8.14,33.39,29.48,31.2,51.01
			c-2.16,21.03-19.1,39.09-39.77,43.47c4.1,15.11,0.93,31.82-8.58,43.16c-7.74,9.21-19.66,15.01-32.71,15.93
			c-9.47,0.65-18.76-1.31-26.55-5.51c-0.94,8.34-4.55,16.57-10.47,23.56c-8.29,9.79-19.73,15.51-31.41,15.7
			C814.98,791.49,814.78,791.49,814.58,791.49z M776.59,739.35c0.53,0,1.07,0.09,1.6,0.27c2.12,0.74,3.44,2.86,3.18,5.09
			c-1.02,8.88,2.26,18.24,9,25.68c6.73,7.43,15.44,11.71,24.66,11.47c8.9-0.14,17.72-4.62,24.21-12.29
			c6.49-7.67,9.45-17.11,8.12-25.91c-0.3-2.01,0.69-3.99,2.48-4.95c1.78-0.96,3.99-0.7,5.49,0.65c7.05,6.32,17.12,9.52,27.59,8.78
			c10.46-0.74,19.94-5.3,26.01-12.52c8.5-10.13,10.55-25.82,5.1-39.06c-0.59-1.42-0.46-3.04,0.35-4.35c0.8-1.31,2.19-2.16,3.72-2.28
			c18.51-1.45,35.1-17.47,36.97-35.73c2-19.68-13.35-39.93-32.86-43.33c-1.98-0.35-3.54-1.88-3.91-3.86
			c-0.37-1.97,0.54-3.97,2.26-5.01c15.89-9.53,23.16-31.27,16.19-48.46c-7.05-17.18-27.48-27.61-45.5-23.26
			c-1.76,0.44-3.6-0.17-4.78-1.54c-1.18-1.37-1.49-3.28-0.81-4.95c7.09-17.45-0.32-39.51-16.52-49.16c-2.71-1.58-5.7-2.84-8.87-3.73
			c-5.63-1.54-11.76-1.83-17.73-0.85c-0.22,0.04-0.44,0.06-0.66,0.07c-9.67,1.76-18.13,6.55-23.87,13.51
			c-1.11,1.35-2.85,1.97-4.59,1.67c-1.72-0.32-3.13-1.55-3.68-3.2c-2.11-6.31-7.24-11.32-14.43-14.12
			c-8.9-3.47-19.28-2.92-27.12,1.43c-13.22,7.31-21.87,23.01-23.14,41.99c-0.12,0.9-0.12,1.4-0.14,1.9l-0.05,1.25
			c-0.13,2.1-1.61,3.87-3.65,4.37c-2.07,0.51-4.18-0.38-5.27-2.18c-0.24-0.4-0.53-0.77-0.85-1.16
			c-9.79-12.82-30.08-16.34-43.49-7.59c-0.62,0.36-0.9,0.57-1.18,0.78c-11.01,8.02-15.58,24.62-10.62,38.05
			c0.08,0.16,0.16,0.33,0.23,0.49c1.08,2.8,2.5,5.31,4.24,7.46c1.28,1.59,1.42,3.83,0.34,5.56c-1.08,1.74-3.12,2.6-5.14,2.15
			c-5.69-1.27-11.85-0.88-17.83,1.17c-0.17,0.08-0.35,0.16-0.54,0.23c-10.95,3.84-19.56,12.63-22.45,22.94
			c-2.67,9.57-0.33,20.73,5.94,29.4c15.44-8.53,34.86-8.59,49.62,0.16c17.88,10.59,27.18,33.27,22.95,53.39
			c20.27-1.17,40.98,11.22,48.66,30.17c7.49,18.32,1.98,40.73-12.18,54.23c0.79,0.33,1.59,0.69,2.37,1.06
			c6.97-2.97,12.77-7.76,16.48-13.65C773.41,740.17,774.97,739.35,776.59,739.35z"/>
	</g>
	<g>
		<path class="st4" d="M738.89,517.44c-0.12,0-0.24,0-0.37-0.01c-1.37-0.1-2.63-0.78-3.46-1.88c-9.73-12.75-30.02-16.26-43.44-7.52
			c-1.18,0.77-2.64,0.98-4,0.58c-1.35-0.4-2.46-1.38-3.03-2.67c-2.2-5.01-3.26-10.36-3.12-15.55c-8.04-0.33-16.93-2.79-23.88-7.98
			c-4.61-3.28-8.49-7.74-11.1-12.82c-6.62-12.67-5.27-28.7,2.85-40.36c-7.98-4.83-13.99-13.29-15.96-22.98
			c-1.01-4.92-0.85-10,0.44-14.7c3.76-13.52,16.44-23.21,30.07-24.32c-1.72-4.83-2.29-10.19-1.57-15.58
			c1.18-8.78,5.65-16.59,12.27-21.43c6.61-4.84,15.4-6.73,24.13-5.2c4.9,0.86,9.46,2.75,13.32,5.44
			c2.72-13.04,9.95-23.9,20.07-29.56c7.84-4.33,18.13-4.89,26.87-1.48c5.05,1.97,9.16,5.05,12.03,8.94
			c11.83-9.51,29.76-11.32,42.92-3.47c12.99,7.64,19.99,23.82,17.6,38.62c0.07,0,0.14,0,0.21,0c14.64,0,29.28,9.15,34.9,22.83
			c5.36,13.26,1.78,29.32-7.86,39.6c13.88,6.67,23.35,22.13,21.81,37.7c-1.08,10.33-7.15,20.27-16.26,26.61
			c-1.17,0.82-2.64,1.07-4.02,0.7c-5.67-1.55-11.81-1.85-17.77-0.86c-0.22,0.04-0.44,0.06-0.66,0.07
			c-9.67,1.76-18.13,6.55-23.87,13.51c-1.11,1.35-2.85,1.97-4.59,1.67c-1.72-0.32-3.13-1.55-3.68-3.2
			c-2.11-6.31-7.24-11.32-14.43-14.12c-8.9-3.47-19.28-2.92-27.12,1.43c-13.22,7.31-21.87,23.01-23.14,41.99
			c-0.07,1.02-0.47,2-1.12,2.78c-0.57,0.67-1.08,1.27-1.72,1.88C741.33,516.96,740.13,517.44,738.89,517.44z M708.7,493.53
			c9.94,0,19.93,3.34,27.65,9.62c3.13-18.84,12.98-34.28,27.2-42.14c10.26-5.69,23.78-6.44,35.26-1.98
			c7.3,2.84,13.08,7.44,16.84,13.29c6.87-6.04,15.61-10.16,25.26-11.78c0.24-0.04,0.49-0.06,0.74-0.07
			c6.32-0.96,12.77-0.75,18.89,0.6c5.89-4.75,9.77-11.5,10.49-18.42c1.35-13.67-9.35-27.78-22.91-30.17
			c-1.98-0.35-3.53-1.89-3.9-3.87c-0.36-1.98,0.55-3.97,2.27-5c11.04-6.57,16.09-21.67,11.25-33.66
			c-4.9-11.91-19.06-19.17-31.59-16.19c-1.77,0.41-3.6-0.18-4.77-1.54c-1.17-1.36-1.49-3.27-0.81-4.94
			c4.84-11.98-0.44-27.6-11.53-34.12c-11.08-6.59-27.35-3.76-35.54,6.18c-1.12,1.35-2.87,1.96-4.59,1.67
			c-1.72-0.32-3.13-1.54-3.69-3.2c-1.4-4.19-4.86-7.55-9.73-9.44c-6.14-2.4-13.31-2.04-18.7,0.93c-11.6,6.49-16.03,20.6-16.29,31.65
			c-0.05,2.1-1.45,3.91-3.46,4.5c-2.02,0.6-4.18-0.2-5.34-1.94c-3.13-4.65-8.45-7.94-14.63-9.03c-6.16-1.06-12.27,0.18-16.78,3.48
			c-4.52,3.3-7.59,8.75-8.42,14.95c-0.84,6.2,0.69,12.27,4.17,16.65c1.27,1.6,1.39,3.82,0.31,5.55c-1.09,1.73-3.12,2.6-5.14,2.14
			c-11.73-2.66-24.87,5.24-28.11,16.85c-0.89,3.23-0.99,6.77-0.29,10.2c1.76,8.61,8.08,16.1,15.73,18.63
			c1.59,0.52,2.8,1.84,3.18,3.47c0.38,1.63-0.11,3.34-1.3,4.52c-8.74,8.65-11.05,23.36-5.38,34.22c1.93,3.75,4.77,7.02,8.23,9.48
			c6.72,5.02,15.24,7.14,22.83,5.7c1.6-0.31,3.23,0.23,4.36,1.41c1.12,1.17,1.58,2.84,1.21,4.42c-0.8,3.45-0.77,7.19,0.08,10.89
			C697.08,494.68,702.88,493.53,708.7,493.53z"/>
	</g>
	<g>
		<path class="st4" d="M357.3,549.16c-0.26,0-0.52-0.02-0.78-0.07c-2.63-0.43-4.4-2.9-3.97-5.53l46.44-281.84
			c0.43-2.63,2.88-4.43,5.53-3.97c2.63,0.43,4.4,2.9,3.97,5.53l-46.44,281.83C361.65,547.48,359.61,549.16,357.3,549.16z"/>
	</g>
	<g>
		<path class="st4" d="M318.9,517.7c-0.16,0-0.33-0.01-0.5-0.02c-2.65-0.28-4.57-2.64-4.3-5.28l24.12-233.32
			c0.27-2.65,2.6-4.51,5.28-4.3c2.65,0.28,4.57,2.64,4.3,5.28l-24.12,233.32C323.43,515.86,321.34,517.7,318.9,517.7z"/>
	</g>
	<g>
		<path class="st4" d="M274.79,483.81c-0.06,0-0.13,0-0.19,0c-2.66-0.1-4.73-2.34-4.62-4.99l5.57-146.73
			c0.1-2.66,2.36-4.91,4.99-4.62c2.66,0.1,4.73,2.34,4.62,4.99l-5.57,146.73C279.5,481.78,277.36,483.81,274.79,483.81z"/>
	</g>
	<g>
		<path class="st4" d="M536.12,578.84c-2.08,0-3.99-1.35-4.61-3.44l-21.76-73.51c-0.75-2.55,0.7-5.23,3.25-5.98
			c2.54-0.75,5.23,0.7,5.98,3.25l21.76,73.51c0.75,2.55-0.7,5.23-3.25,5.98C537.04,578.78,536.58,578.84,536.12,578.84z"/>
	</g>
	<g>
		<path class="st4" d="M481.91,624.7c-1.44,0-2.86-0.64-3.81-1.86l-60.54-78.06c-1.63-2.1-1.25-5.13,0.85-6.75
			c2.11-1.64,5.13-1.25,6.75,0.85l60.54,78.06c1.63,2.1,1.25,5.13-0.85,6.75C483.97,624.37,482.94,624.7,481.91,624.7z"/>
	</g>
</g>
</svg>
