<?xml version="1.0" encoding="utf-8"?>
<!-- Generator: Adobe Illustrator 26.2.1, SVG Export Plug-In . SVG Version: 6.00 Build 0)  -->
<svg version="1.1" id="Layer_1" xmlns="http://www.w3.org/2000/svg" xmlns:xlink="http://www.w3.org/1999/xlink" x="0px" y="0px"
	 viewBox="0 0 1200 1200" style="enable-background:new 0 0 1200 1200;" xml:space="preserve">
<style type="text/css">
	.st0{fill:#FFFFFF;}
	.st1{fill:#EDEDD3;}
	.st2{fill:#BCD167;}
	.st3{fill:#E6EBB7;}
	.st4{fill:#154D72;}
	.st5{fill:#9FB32A;}
	.st6{fill:none;}
</style>
<g>
	<path class="st0" d="M742.45,301c80.84,23.71,139.86,93.23,150.2,176.88l36.16,293c5.34,43.31-18.54,84.96-58.64,102.23
		L620.53,980.6c-40.1,17.27-86.76,6-114.58-27.68l-187-226.34c-54.17-65.62-63.75-157.28-24.27-232.62l18.16-34.71
		c13.16-25.05,20.39-52.65,22.92-80.81c5.87-64.8,46.12-124.45,110.07-151.99c63.99-27.56,135.02-15.84,186.13,24.52
		c22.32,17.6,47.33,31.48,74.65,39.51L742.45,301z M870.58,514.09c-17.79-142.45-100.4-175.67-144.67-183.14
		c-12.63-2.15-23.07,9.71-19.3,21.98c33.21,107.93-40.17,177.06-69.94,198.09c-6.62,4.64-9.01,13.31-5.81,20.73l125.71,291.91
		c3.75,8.71,13.88,12.74,22.59,8.99l92.78-39.96c24.34-10.48,38.65-35.99,34.93-62.26L870.58,514.09z M666.77,330.78
		c-35.17-81.67-130.22-119.49-211.89-84.32c-81.7,35.18-119.53,130.24-84.36,211.9c35.18,81.7,130.24,119.53,211.94,84.35
		C664.13,507.53,701.96,412.48,666.77,330.78z M696.76,889.43L571.04,597.52c-3.2-7.42-11.14-11.64-19.06-10.02
		c-35.74,7.17-136.38,12.99-191.98-85.3c-6.33-11.17-22.12-11.74-29.24-1.08c-25.03,37.32-57.62,120.15,33.65,230.95l161.32,202.51
		c16.5,20.77,44.89,27.89,69.24,17.41l92.78-39.96C696.47,908.27,700.5,898.14,696.76,889.43z"/>
	<path class="st2" d="M725.91,330.95c44.27,7.47,126.89,40.69,144.67,183.14l36.28,256.36c3.72,26.27-10.58,51.78-34.93,62.26
		l-92.78,39.96c-8.71,3.75-18.84-0.28-22.59-8.99L630.85,571.76c-3.2-7.42-0.81-16.09,5.81-20.73
		c29.76-21.04,103.15-90.17,69.94-198.09C702.84,340.66,713.27,328.8,725.91,330.95z"/>
	<path class="st0" d="M459.75,257.76c75.45-32.49,163.24,2.48,195.71,77.89c32.49,75.45-2.42,163.26-77.87,195.75
		c-75.45,32.49-163.27-2.46-195.77-77.91C349.35,378.08,384.31,290.25,459.75,257.76z M543.82,383.77
		c-4.54-10.55-14.96-16.79-25.74-16.52l-39.26-91.16c-1.12-2.6-3.18-4.48-5.62-5.49c-2.43-0.97-5.25-1-7.86,0.12
		c-5.2,2.24-7.6,8.28-5.36,13.48l39.26,91.16c-7.64,7.67-10.23,19.51-5.69,30.06c4.54,10.55,14.92,16.81,25.74,16.52l9.95,23.1
		c2.24,5.2,8.28,7.6,13.48,5.36c5.2-2.24,7.6-8.28,5.36-13.48l-9.95-23.1C545.74,406.17,548.36,394.32,543.82,383.77z"/>
	<path class="st3" d="M478.82,276.09l39.26,91.16c-3.42,0.04-6.9,0.78-10.22,2.21c-3.32,1.43-6.24,3.45-8.63,5.9l-39.26-91.16
		c-2.24-5.2,0.16-11.24,5.36-13.48c2.6-1.12,5.43-1.09,7.86-0.12C475.63,271.6,477.7,273.49,478.82,276.09z"/>
	<path class="st4" d="M507.86,369.46c3.32-1.43,6.8-2.17,10.22-2.21c10.79-0.27,21.2,5.97,25.74,16.52
		c4.54,10.55,1.92,22.4-5.69,30.06c-2.38,2.46-5.31,4.48-8.63,5.9c-3.35,1.44-6.8,2.17-10.22,2.21
		c-10.82,0.28-21.2-5.97-25.74-16.52c-4.54-10.55-1.96-22.39,5.69-30.06C501.61,372.91,504.54,370.89,507.86,369.46z"/>
	<path class="st3" d="M519.29,421.94c3.42-0.04,6.86-0.77,10.22-2.21c3.32-1.43,6.24-3.45,8.63-5.9l9.95,23.1
		c2.24,5.2-0.16,11.24-5.36,13.48c-5.2,2.24-11.24-0.16-13.48-5.36L519.29,421.94z"/>
	<path class="st2" d="M571.04,597.52l125.71,291.91c3.75,8.71-0.28,18.84-8.99,22.59l-92.78,39.96
		c-24.35,10.48-52.74,3.37-69.24-17.41L364.42,732.07c-91.27-110.8-58.68-193.64-33.65-230.95c7.11-10.66,22.91-10.09,29.24,1.08
		c55.6,98.29,156.24,92.47,191.98,85.3C559.91,585.87,567.85,590.09,571.04,597.52z"/>
	<path class="st2" d="M370.52,458.35c-35.17-81.67,2.66-176.72,84.36-211.9c81.67-35.17,176.72,2.66,211.89,84.32
		c35.18,81.7-2.64,176.75-84.31,211.92C500.76,577.88,405.71,540.06,370.52,458.35z M381.83,453.49
		c32.49,75.45,120.32,110.4,195.77,77.91c75.45-32.49,110.36-120.3,77.87-195.75c-32.47-75.41-120.26-110.38-195.71-77.89
		C384.31,290.25,349.35,378.08,381.83,453.49z"/>
	<g>
		<path class="st4" d="M581.99,990.97c-29.48,0-58.44-12.88-77.93-36.49l-187-226.34c-54.95-66.56-64.58-158.92-24.56-235.32
			l18.15-34.71c12.39-23.59,20.01-50.47,22.65-79.89c6.16-68.02,48.9-127.04,111.55-154.02c62.73-27.01,135-17.49,188.62,24.84
			c23.34,18.4,48.18,31.55,73.82,39.09l35.84,10.52c81.84,24,141.48,94.24,151.94,178.93l36.16,293
			c5.44,44.11-19.28,87.2-60.1,104.78L621.5,982.86C608.79,988.34,595.33,990.97,581.99,990.97z M518.35,213.93
			c-24.19,0-48.53,4.86-71.55,14.77c-60.99,26.27-102.61,83.73-108.6,149.96c-2.7,30.07-10.5,57.57-23.19,81.73l-18.15,34.71
			c-39.11,74.64-29.69,164.89,23.99,229.92l187,226.34c26.94,32.62,72.88,43.72,111.72,26.99l249.63-107.51
			c38.84-16.73,62.35-57.71,57.17-99.67l-36.16-293c-10.22-82.75-68.5-151.37-148.45-174.82l0,0l-35.85-10.52
			c-26.25-7.71-51.64-21.15-75.48-39.94C597.91,227.21,558.33,213.93,518.35,213.93z M518.89,558.3
			c-63.46,0-123.97-37.09-150.62-98.98c-35.7-82.91,2.72-179.41,85.64-215.13c40.1-17.26,84.58-17.87,125.26-1.68
			c40.67,16.19,72.59,47.19,89.86,87.29c35.71,82.93-2.68,179.44-85.59,215.14C562.39,554.01,540.47,558.3,518.89,558.3z
			 M518.49,235.71c-21.28,0-42.53,4.34-62.64,12.99c-80.44,34.64-117.71,128.26-83.08,208.68c34.64,80.44,128.28,117.7,208.72,83.06
			c80.42-34.63,117.67-128.25,83.02-208.7c-16.75-38.9-47.7-68.96-87.16-84.67C558.3,239.5,538.38,235.71,518.49,235.71z"/>
	</g>
	<g>
		<path class="st4" d="M518.88,545.99c-58.69,0-114.65-34.3-139.3-91.54c-15.97-37.07-16.51-78.21-1.54-115.83
			c14.98-37.63,43.65-67.14,80.74-83.12c37.08-15.97,78.23-16.52,115.85-1.54c37.61,14.98,67.12,43.64,83.08,80.72
			c33.03,76.69-2.48,165.95-79.15,198.97C559.11,542.03,538.83,545.99,518.88,545.99z M518.5,248.02c-19.63,0-39.23,4-57.78,11.99
			c-35.89,15.46-63.63,44.02-78.13,80.42c-14.49,36.41-13.96,76.21,1.48,112.08c31.96,74.21,118.34,108.58,192.54,76.63
			c35.88-15.46,63.62-44.01,78.1-80.42c14.48-36.4,13.94-76.22-1.51-112.11c-15.45-35.87-44-63.61-80.4-78.1
			C555.23,251.52,536.85,248.02,518.5,248.02z M538.68,453.7c-4.93,0-9.62-2.88-11.69-7.68l-9.31-21.62
			c-11.52-0.34-21.75-7.27-26.38-18c-4.62-10.74-2.62-22.93,5.05-31.54l-38.62-89.68c-1.34-3.12-1.39-6.57-0.13-9.73
			c1.25-3.16,3.66-5.63,6.78-6.97c3.13-1.35,6.58-1.4,9.73-0.15c3.18,1.3,5.64,3.71,6.97,6.79l38.62,89.68
			c11.53,0.35,21.76,7.28,26.38,18l0,0c4.62,10.72,2.62,22.92-5.05,31.53l9.31,21.63c1.34,3.12,1.39,6.57,0.13,9.73
			c-1.25,3.16-3.66,5.63-6.78,6.97C542.05,453.36,540.35,453.7,538.68,453.7z M519.29,419.49c0.98,0,1.86,0.58,2.25,1.48l9.95,23.1
			c1.7,3.95,6.3,5.8,10.26,4.08c1.91-0.82,3.39-2.34,4.16-4.28c0.77-1.94,0.74-4.06-0.08-5.97l-9.95-23.1
			c-0.4-0.92-0.19-1.99,0.51-2.7c7.19-7.23,9.22-17.97,5.17-27.36h0c-4.04-9.39-13.14-15.32-23.43-15.04
			c-1.01,0.01-1.92-0.56-2.31-1.48l-39.26-91.16c-0.82-1.9-2.34-3.38-4.3-4.19c-1.91-0.76-4.03-0.72-5.95,0.11
			c-1.91,0.83-3.39,2.35-4.16,4.28s-0.74,4.06,0.08,5.97l39.26,91.16c0.4,0.92,0.19,1.99-0.52,2.7c-7.19,7.21-9.22,17.95-5.17,27.36
			c4.05,9.4,13.2,15.35,23.43,15.04C519.25,419.49,519.27,419.49,519.29,419.49z"/>
	</g>
	<g>
		<path class="st4" d="M499.23,377.81c-0.15,0-0.29-0.01-0.44-0.04c-0.81-0.15-1.48-0.69-1.81-1.44l-39.26-91.16
			c-1.34-3.12-1.39-6.57-0.13-9.73c1.25-3.16,3.66-5.63,6.78-6.97c3.13-1.35,6.58-1.4,9.73-0.15c3.18,1.3,5.64,3.71,6.97,6.79
			c0,0,0,0,0,0l39.26,91.16c0.32,0.75,0.25,1.62-0.2,2.31c-0.45,0.69-1.21,1.11-2.03,1.12c-3.15,0.04-6.27,0.72-9.28,2.01
			c-3.01,1.3-5.64,3.1-7.84,5.36C500.52,377.55,499.89,377.81,499.23,377.81z M469.42,272.32c-1.05,0-2.11,0.22-3.12,0.65
			c-1.91,0.83-3.39,2.35-4.16,4.28s-0.74,4.06,0.08,5.97l37.9,88.01c2.03-1.62,4.29-2.97,6.76-4.04c2.46-1.06,5-1.78,7.58-2.14
			l-37.9-88.01c-0.82-1.9-2.35-3.38-4.31-4.19C471.35,272.51,470.39,272.32,469.42,272.32z"/>
	</g>
	<g>
		<path class="st4" d="M518.54,424.4c-11.85,0-22.5-7-27.24-18.01c-4.85-11.26-2.41-24.12,6.2-32.76c2.62-2.7,5.79-4.87,9.39-6.43
			c3.6-1.55,7.35-2.36,11.16-2.41c12.3-0.35,23.19,6.77,28.03,18c4.84,11.24,2.41,24.09-6.2,32.75c-2.62,2.7-5.79,4.87-9.39,6.43
			c-3.59,1.55-7.35,2.36-11.15,2.41C519.06,424.4,518.8,424.4,518.54,424.4z M518.76,369.69c-0.21,0-0.42,0-0.63,0.01
			c-3.18,0.04-6.3,0.72-9.31,2.01v0c-3.01,1.29-5.64,3.09-7.84,5.36c-7.21,7.24-9.24,17.98-5.19,27.38
			c4.05,9.4,13.2,15.35,23.43,15.04c3.19-0.04,6.31-0.72,9.31-2.01c3.01-1.3,5.65-3.1,7.84-5.36c7.21-7.25,9.24-17.99,5.19-27.38
			C537.61,375.54,528.7,369.69,518.76,369.69z M507.86,369.46h0.05H507.86z"/>
	</g>
	<g>
		<path class="st4" d="M538.68,453.7c-4.93,0-9.62-2.88-11.69-7.68l-9.95-23.1c-0.33-0.75-0.25-1.62,0.19-2.3
			c0.45-0.69,1.2-1.11,2.02-1.12c3.16-0.04,6.28-0.72,9.28-2.01c3.01-1.3,5.65-3.1,7.84-5.36c0.57-0.58,1.39-0.85,2.2-0.7
			c0.81,0.15,1.48,0.69,1.81,1.44l9.95,23.1c1.34,3.12,1.39,6.57,0.13,9.73c-1.25,3.16-3.66,5.63-6.78,6.97
			C542.05,453.36,540.35,453.7,538.68,453.7z M522.9,424.12l8.59,19.95c1.7,3.95,6.3,5.8,10.26,4.08c1.91-0.82,3.39-2.34,4.16-4.28
			c0.77-1.94,0.74-4.06-0.08-5.97l-8.59-19.95c-2.03,1.62-4.29,2.97-6.76,4.04C528.01,423.05,525.48,423.76,522.9,424.12z"/>
	</g>
	<g>
		<path class="st4" d="M518.89,558.3c-63.46,0-123.97-37.09-150.62-98.98c-35.7-82.91,2.72-179.41,85.64-215.13
			c40.1-17.26,84.58-17.87,125.26-1.68c40.67,16.19,72.59,47.19,89.85,87.29c35.71,82.93-2.68,179.44-85.59,215.14
			C562.39,554.01,540.47,558.3,518.89,558.3z M372.77,457.38c34.64,80.44,128.28,117.7,208.72,83.06
			c80.42-34.63,117.67-128.25,83.02-208.7c-16.75-38.9-47.7-68.96-87.16-84.67c-39.46-15.7-82.61-15.12-121.5,1.62
			C375.41,283.35,338.14,376.96,372.77,457.38z M518.88,545.99c-58.69,0-114.65-34.31-139.3-91.54l0,0
			c-15.97-37.07-16.51-78.21-1.54-115.83c14.98-37.63,43.65-67.14,80.74-83.11c37.08-15.98,78.23-16.52,115.85-1.55
			c37.61,14.98,67.12,43.64,83.08,80.72c33.03,76.69-2.48,165.95-79.15,198.97C559.11,542.03,538.83,545.99,518.88,545.99z
			 M518.5,248.02c-19.63,0-39.23,4-57.78,11.99c-35.89,15.46-63.63,44.02-78.13,80.42c-14.49,36.41-13.96,76.21,1.48,112.08l0,0
			c31.96,74.21,118.34,108.59,192.54,76.63c74.19-31.95,108.55-118.32,76.59-192.52c-15.45-35.87-44-63.61-80.4-78.1
			C555.23,251.52,536.85,248.02,518.5,248.02z"/>
	</g>
	<g>
		<path class="st4" d="M547.27,953.84c-0.36,0-0.72-0.08-1.06-0.24c-1.22-0.58-1.73-2.05-1.15-3.27L638,757.05
			c0.59-1.22,2.05-1.74,3.27-1.14c1.22,0.58,1.73,2.05,1.15,3.27l-92.93,193.28C549.06,953.33,548.18,953.84,547.27,953.84z"/>
	</g>
	<g>
		<path class="st4" d="M594.98,954.43c-0.34,0-0.69-0.07-1.02-0.22c-1.23-0.57-1.77-2.02-1.21-3.25l66.28-144.98
			c0.56-1.23,2.01-1.77,3.25-1.21c1.23,0.57,1.77,2.02,1.21,3.25L597.21,953C596.8,953.9,595.91,954.43,594.98,954.43z"/>
	</g>
	<g>
		<path class="st4" d="M645.13,932.84c-0.32,0-0.65-0.06-0.96-0.2c-1.25-0.53-1.82-1.97-1.29-3.22l34.48-80.78
			c0.53-1.25,1.99-1.82,3.22-1.29c1.25,0.53,1.82,1.97,1.29,3.22l-34.48,80.78C646.99,932.28,646.08,932.84,645.13,932.84z"/>
	</g>
	<g>
		<path class="st4" d="M513.59,921.77c-0.36,0-0.73-0.08-1.08-0.25c-1.21-0.6-1.71-2.07-1.12-3.29l104.47-212.61
			c0.59-1.21,2.05-1.72,3.28-1.12c1.21,0.6,1.71,2.07,1.12,3.28L515.8,920.4C515.37,921.27,514.5,921.77,513.59,921.77z"/>
	</g>
	<g>
		<path class="st4" d="M475.03,873.36c-0.4,0-0.8-0.1-1.17-0.3c-1.19-0.65-1.63-2.14-0.98-3.32l119.46-218.96
			c0.65-1.19,2.15-1.63,3.33-0.98c1.19,0.65,1.63,2.14,0.98,3.33L477.18,872.08C476.74,872.9,475.9,873.36,475.03,873.36z"/>
	</g>
	<g>
		<path class="st4" d="M439.57,828.85c-0.41,0-0.83-0.11-1.22-0.33c-1.17-0.68-1.58-2.17-0.91-3.35L568.92,596.3
			c0.67-1.18,2.17-1.58,3.35-0.91c1.17,0.68,1.58,2.17,0.91,3.35L441.7,827.62C441.25,828.41,440.42,828.85,439.57,828.85z"/>
	</g>
	<g>
		<path class="st4" d="M401.62,781.21c-0.42,0-0.85-0.11-1.23-0.34c-1.17-0.68-1.56-2.18-0.88-3.35l109.55-187.79
			c0.68-1.17,2.18-1.56,3.35-0.88c1.17,0.68,1.56,2.18,0.88,3.35L403.74,780C403.28,780.78,402.46,781.21,401.62,781.21z"/>
	</g>
	<g>
		<path class="st4" d="M364.42,734.52c-0.43,0-0.86-0.11-1.25-0.34c-1.16-0.69-1.54-2.2-0.85-3.36l89.78-150.48
			c0.69-1.16,2.19-1.54,3.36-0.85c1.16,0.69,1.54,2.2,0.85,3.36l-89.78,150.47C366.07,734.09,365.26,734.52,364.42,734.52z"/>
	</g>
	<g>
		<path class="st4" d="M337.72,697.53c-0.42,0-0.85-0.11-1.24-0.34c-1.17-0.69-1.55-2.19-0.87-3.36l77.86-132.1
			c0.68-1.17,2.19-1.55,3.36-0.87c1.17,0.69,1.55,2.19,0.87,3.36l-77.86,132.1C339.38,697.1,338.56,697.53,337.72,697.53z"/>
	</g>
	<g>
		<path class="st4" d="M313.06,647.77c-0.45,0-0.9-0.12-1.3-0.38c-1.15-0.72-1.49-2.23-0.77-3.38l69.69-110.94
			c0.72-1.14,2.23-1.49,3.38-0.77c1.15,0.72,1.49,2.23,0.77,3.38l-69.69,110.94C314.67,647.36,313.88,647.77,313.06,647.77z"/>
	</g>
	<g>
		<path class="st4" d="M304.58,577.21c-0.44,0-0.88-0.12-1.28-0.36c-1.15-0.71-1.51-2.22-0.8-3.37l48.78-79.17
			c0.71-1.16,2.22-1.52,3.37-0.8c1.15,0.71,1.51,2.22,0.8,3.37l-48.78,79.17C306.21,576.8,305.4,577.21,304.58,577.21z"/>
	</g>
	<g>
		<path class="st4" d="M772.39,876.52c-7.62,0-14.88-4.45-18.07-11.87L628.6,572.73c-3.65-8.48-0.85-18.45,6.66-23.71
			c17.7-12.51,104.26-80.77,69-195.37c-2.02-6.58-0.52-13.59,4.01-18.74c4.53-5.15,11.29-7.55,18.05-6.38
			c47.14,7.96,128.88,42.6,146.69,185.25l36.28,256.31c3.87,27.3-11.1,53.97-36.39,64.86l-92.78,39.96
			C777.6,876.01,774.97,876.52,772.39,876.52z M722.97,333.16c-4.2,0-8.19,1.78-11.02,5c-3.4,3.87-4.52,9.12-3,14.07
			c36.26,117.83-52.67,187.96-70.87,200.82c-5.62,3.94-7.71,11.4-4.98,17.76l125.71,291.91c3.22,7.46,11.9,10.92,19.37,7.71
			l92.78-39.96c23.26-10.02,37.02-34.56,33.47-59.67l-36.28-256.35C850.73,374.9,771.3,341.1,725.5,333.37c0,0,0,0,0,0
			C724.65,333.23,723.8,333.16,722.97,333.16z"/>
	</g>
	<g>
		<path class="st4" d="M571.82,959.21c-18.27,0-36.13-8.17-47.99-23.11l-161.32-202.5c-91.42-110.97-60.4-194.15-33.77-233.84
			c3.81-5.71,10.21-9.04,17.03-8.73c6.86,0.25,12.98,3.98,16.37,9.97c59.03,104.37,168.09,88.37,189.36,84.11
			c8.96-1.85,18.14,2.97,21.79,11.45l125.71,291.91c2.07,4.81,2.14,10.15,0.2,15.03c-1.94,4.88-5.66,8.71-10.48,10.78l-92.78,39.96
			C588.16,957.59,579.95,959.21,571.82,959.21z M345.04,495.91c-4.93,0-9.47,2.43-12.23,6.57c-25.87,38.57-55.92,119.48,33.5,228.03
			l161.35,202.54c15.76,19.86,43.05,26.72,66.35,16.68l92.78-39.96c3.61-1.55,6.4-4.43,7.86-8.09c1.46-3.66,1.41-7.67-0.15-11.27
			L568.79,598.49c-2.73-6.35-9.61-9.95-16.31-8.59c-21.86,4.38-133.91,20.81-194.61-86.5c-2.55-4.5-7.14-7.29-12.28-7.48
			C345.41,495.91,345.22,495.91,345.04,495.91z"/>
	</g>
	<g>
		<path class="st4" d="M394.2,450.62c-0.95,0-1.86-0.56-2.25-1.48c-0.54-1.24,0.04-2.69,1.28-3.22l28.93-12.46
			c1.24-0.54,2.68,0.04,3.22,1.28c0.54,1.24-0.04,2.69-1.28,3.22l-28.93,12.46C394.85,450.56,394.52,450.62,394.2,450.62z"/>
	</g>
	<g>
		<path class="st4" d="M610.34,357.56c-0.95,0-1.86-0.56-2.25-1.48c-0.54-1.24,0.04-2.69,1.28-3.22l28.93-12.46
			c1.25-0.53,2.69,0.04,3.22,1.28c0.54,1.24-0.04,2.69-1.28,3.22l-28.93,12.46C611,357.5,610.67,357.56,610.34,357.56z"/>
	</g>
	<g>
		<path class="st4" d="M569.5,520.4c-0.95,0-1.85-0.56-2.25-1.48l-12.46-28.93c-0.53-1.24,0.04-2.69,1.28-3.22
			c1.24-0.53,2.69,0.04,3.22,1.28l12.46,28.93c0.53,1.24-0.04,2.69-1.28,3.22C570.15,520.34,569.82,520.4,569.5,520.4z"/>
	</g>
	<g>
		<path class="st4" d="M422.05,360.17c-0.3,0-0.61-0.06-0.91-0.17l-29.27-11.65c-1.26-0.5-1.87-1.93-1.37-3.19
			c0.5-1.26,1.92-1.88,3.19-1.37l29.27,11.65c1.26,0.5,1.87,1.93,1.37,3.19C423.95,359.59,423.03,360.17,422.05,360.17z"/>
	</g>
	<g>
		<path class="st4" d="M640.69,447.2c-0.3,0-0.61-0.06-0.91-0.17l-29.27-11.65c-1.26-0.5-1.87-1.93-1.37-3.19
			c0.5-1.26,1.92-1.88,3.19-1.37l29.27,11.65c1.26,0.5,1.87,1.93,1.37,3.19C642.59,446.62,641.67,447.2,640.69,447.2z"/>
	</g>
	<g>
		<path class="st4" d="M554.43,303.18c-0.3,0-0.61-0.06-0.91-0.17c-1.26-0.5-1.87-1.93-1.37-3.18l11.65-29.27
			c0.5-1.26,1.92-1.87,3.19-1.37c1.26,0.5,1.87,1.93,1.37,3.19l-11.65,29.27C556.33,302.59,555.4,303.18,554.43,303.18z"/>
	</g>
	<g>
		<path class="st4" d="M467.4,521.82c-0.3,0-0.61-0.06-0.91-0.17c-1.26-0.5-1.87-1.93-1.37-3.19l11.65-29.27
			c0.5-1.26,1.92-1.88,3.19-1.37c1.26,0.5,1.87,1.93,1.37,3.19l-11.65,29.27C469.29,521.23,468.37,521.82,467.4,521.82z"/>
	</g>
</g>
</svg>
