<?xml version="1.0" encoding="utf-8"?>
<!-- Generator: Adobe Illustrator 26.2.1, SVG Export Plug-In . SVG Version: 6.00 Build 0)  -->
<svg version="1.1" id="Layer_1" xmlns="http://www.w3.org/2000/svg" xmlns:xlink="http://www.w3.org/1999/xlink" x="0px" y="0px"
	 viewBox="0 0 1200 1200" style="enable-background:new 0 0 1200 1200;" xml:space="preserve">
<style type="text/css">
	.st0{fill:#FFFFFF;}
	.st1{fill:#EDEDD3;}
	.st2{fill:#BCD167;}
	.st3{fill:#E6EBB7;}
	.st4{fill:#154D72;}
	.st5{fill:#9FB32A;}
	.st6{fill:none;}
</style>
<g>
	<polygon class="st2" points="923.78,489.91 923.78,710.11 710.22,710.11 710.22,923.8 489.9,923.8 489.9,710.11 276.21,710.11 
		276.21,489.91 489.9,489.91 489.9,276.22 710.22,276.22 710.22,489.91 	"/>
	<g>
		<path class="st4" d="M710.22,937.58H489.9c-7.62,0-13.79-6.17-13.79-13.79V723.9H276.21c-7.62,0-13.79-6.17-13.79-13.79V489.9
			c0-7.62,6.17-13.79,13.79-13.79h199.89V276.21c0-7.62,6.17-13.79,13.79-13.79h220.33c7.62,0,13.79,6.17,13.79,13.79V476.1h199.77
			c7.62,0,13.79,6.17,13.79,13.79v220.2c0,7.62-6.17,13.79-13.79,13.79H724.02v199.89C724.02,931.41,717.85,937.58,710.22,937.58z
			 M503.69,910h192.74V710.1c0-7.62,6.17-13.79,13.79-13.79H910V503.69H710.22c-7.62,0-13.79-6.17-13.79-13.79V290H503.69V489.9
			c0,7.62-6.17,13.79-13.79,13.79H290.01v192.62H489.9c7.62,0,13.79,6.17,13.79,13.79V910z"/>
	</g>
</g>
</svg>
