<?xml version="1.0" encoding="utf-8"?>
<!-- Generator: Adobe Illustrator 26.2.1, SVG Export Plug-In . SVG Version: 6.00 Build 0)  -->
<svg version="1.1" id="Layer_1" xmlns="http://www.w3.org/2000/svg" xmlns:xlink="http://www.w3.org/1999/xlink" x="0px" y="0px"
	 viewBox="0 0 1200 1200" style="enable-background:new 0 0 1200 1200;" xml:space="preserve">
<style type="text/css">
	.st0{fill:#FFFFFF;}
	.st1{fill:#EDEDD3;}
	.st2{fill:#BCD167;}
	.st3{fill:#E6EBB7;}
	.st4{fill:#154D72;}
	.st5{fill:#9FB32A;}
	.st6{fill:none;}
</style>
<g>
	<path class="st2" d="M844.78,170.47l161.25,152.86l-603.01,636.1L241.78,806.57c-3.43-3.25-5.58-7.39-6.32-11.73
		c-1.25-6.6,0.54-13.73,5.5-18.96l573.13-604.58c5.07-5.35,12.21-7.52,19.1-6.52C837.4,165.45,841.41,167.27,844.78,170.47z"/>
	<path class="st0" d="M1043.75,309.26l-19.66,36.46c-0.9-4.17-2.99-8.14-6.37-11.34l-11.69-11.08L844.79,170.44
		c-3.37-3.2-7.39-5.02-11.6-5.7l35.3-21.63c9.65-5.87,15.64-0.19,10.23,9.7l-8.86,16.45c-5.4,9.89,0.59,15.57,10.23,9.7l15.89-9.78
		c9.65-5.87,15.58-0.25,10.23,9.7l-8.86,16.45c-5.4,9.89,0.59,15.57,10.23,9.7l15.89-9.78c9.65-5.87,15.58-0.25,10.23,9.7
		l-8.86,16.45c-5.4,9.89,0.59,15.57,10.23,9.7l15.89-9.78c9.65-5.87,15.58-0.25,10.23,9.7l-8.86,16.45
		c-5.4,9.89,0.59,15.57,10.23,9.7l15.89-9.78c9.65-5.87,15.58-0.25,10.23,9.7l-8.86,16.45c-5.4,9.89,0.59,15.57,10.23,9.7
		l15.89-9.78c9.65-5.87,15.58-0.25,10.23,9.7l-8.86,16.45c-5.4,9.89,0.59,15.57,10.23,9.7l15.89-9.78
		C1043.16,293.68,1049.09,299.31,1043.75,309.26z"/>
	<path class="st3" d="M1024.09,345.71c1.31,6.77-0.48,14.01-5.55,19.36L445.41,969.66c-4.63,4.88-10.97,7.15-17.22,6.75
		c-4.83-0.38-9.64-2.29-13.48-5.93l-11.69-11.08l105.73-111.53l497.28-524.57l11.69,11.08
		C1021.1,337.58,1023.18,341.54,1024.09,345.71z"/>
	<path class="st3" d="M345.3,692.91c38.97-41.11,103.82-42.79,144.94-3.81c41.05,38.92,42.84,103.77,3.87,144.88
		c-38.92,41.05-103.82,42.79-144.88,3.87C308.11,798.87,306.38,733.96,345.3,692.91z"/>
	<path class="st0" d="M427.26,977.51l-38.98,23.88c-9.65,5.87-15.64,0.19-10.23-9.7l8.86-16.45c5.35-9.95-0.59-15.57-10.23-9.7
		l-15.89,9.78c-9.65,5.87-15.64,0.19-10.23-9.7l8.86-16.45c5.35-9.95-0.59-15.57-10.23-9.7l-15.89,9.78
		c-9.65,5.87-15.64,0.19-10.23-9.7l8.86-16.45c5.4-9.89-0.59-15.57-10.23-9.7l-15.89,9.78c-9.65,5.87-15.64,0.19-10.23-9.7
		l8.86-16.45c5.4-9.89-0.59-15.57-10.23-9.7l-15.89,9.78c-9.65,5.87-15.58,0.25-10.23-9.7l8.86-16.45c5.4-9.89-0.59-15.57-10.23-9.7
		l-15.89,9.78c-9.65,5.87-15.58,0.25-10.23-9.7l8.86-16.45c5.4-9.89-0.59-15.57-10.23-9.7l-15.89,9.78
		c-9.65,5.87-15.58,0.25-10.23-9.7l21.71-40.25l0.73-0.19c0.74,4.34,2.89,8.48,6.32,11.73L403.03,959.4l11.69,11.08
		c3.84,3.64,8.65,5.55,13.48,5.93L427.26,977.51z"/>
	<g>
		<path class="st4" d="M1024.09,350.54c-0.22,0-0.44-0.02-0.67-0.05c-1.98-0.28-3.58-1.77-4.01-3.73c-0.74-3.42-2.46-6.49-4.98-8.87
			L841.49,173.95c-2.52-2.39-5.57-3.89-9.06-4.44c-1.98-0.32-3.55-1.83-3.94-3.8c-0.39-1.97,0.49-3.97,2.19-5.02l35.3-21.63
			c6.53-3.94,12.72-4.12,16.58-0.42c3.86,3.69,3.99,9.86,0.35,16.51l-8.84,16.42c-1.72,3.13-1.52,4.82-1.38,5.09
			c0.14-0.01,1.84,0.11,4.91-1.76l15.87-9.76c6.49-3.97,12.68-4.14,16.54-0.48c3.86,3.66,4.02,9.83,0.42,16.52l-8.85,16.45
			c-1.72,3.14-1.53,4.83-1.38,5.1c0.14-0.01,1.84,0.11,4.9-1.75l15.88-9.76c6.49-3.97,12.67-4.14,16.54-0.49
			c3.86,3.66,4.02,9.84,0.42,16.53l-8.86,16.45c-1.72,3.14-1.52,4.82-1.38,5.1c0.13-0.01,1.84,0.1,4.91-1.76l15.87-9.76
			c6.49-3.97,12.68-4.14,16.54-0.48c3.85,3.66,4.01,9.84,0.42,16.53l-8.85,16.45c-1.72,3.14-1.53,4.83-1.38,5.1
			c0.14-0.01,1.84,0.1,4.91-1.76l15.88-9.76c6.51-3.97,12.68-4.13,16.54-0.48c3.86,3.66,4.02,9.83,0.42,16.52l-8.86,16.46
			c-1.72,3.13-1.53,4.82-1.38,5.1c0.14-0.02,1.84,0.1,4.91-1.77l15.87-9.76c6.52-3.97,12.69-4.14,16.54-0.49
			c3.86,3.66,4.02,9.84,0.42,16.53l-8.86,16.45c-1.72,3.14-1.52,4.83-1.38,5.1c0.14-0.01,1.84,0.11,4.91-1.76l15.87-9.76
			c6.51-3.96,12.68-4.12,16.55-0.48c3.85,3.66,4.01,9.84,0.42,16.53l-19.66,36.47C1027.46,349.58,1025.83,350.54,1024.09,350.54z
			 M843.95,163.79c1.47,0.93,2.85,1.99,4.13,3.21l172.94,163.93c1.3,1.23,2.45,2.56,3.47,4l15.05-27.92
			c1.69-3.15,1.5-4.85,1.35-5.13c-0.12,0.03-1.82-0.07-4.88,1.79l-15.87,9.76c-6.53,3.97-12.72,4.13-16.59,0.43
			c-3.86-3.69-3.99-9.86-0.36-16.51l8.84-16.42c1.69-3.15,1.5-4.84,1.36-5.13c-0.12,0.03-1.82-0.07-4.89,1.79l-15.87,9.76
			c-6.52,3.97-12.71,4.13-16.59,0.43c-3.86-3.69-3.99-9.86-0.35-16.51l8.84-16.42c1.69-3.14,1.5-4.85,1.35-5.13
			c-0.12,0.03-1.82-0.07-4.88,1.79l-15.88,9.76c-6.52,3.97-12.72,4.13-16.58,0.44c-3.86-3.69-3.99-9.86-0.36-16.51l8.84-16.42
			c1.69-3.15,1.5-4.85,1.36-5.13c-0.12,0.03-1.82-0.07-4.88,1.79l-15.87,9.76c-6.51,3.98-12.72,4.14-16.59,0.44
			c-3.86-3.69-3.99-9.86-0.36-16.51l8.84-16.42c1.69-3.15,1.5-4.84,1.36-5.13c-0.12,0.03-1.82-0.07-4.88,1.79l-15.88,9.76
			c0,0.01-0.01,0.01-0.02,0.02c-6.51,3.96-12.69,4.12-16.57,0.41c-3.86-3.69-3.99-9.86-0.36-16.51l8.84-16.42
			c1.69-3.14,1.5-4.85,1.36-5.13c-0.12,0.03-1.82-0.07-4.88,1.79l-15.88,9.76c-6.52,3.97-12.71,4.13-16.59,0.43
			c-3.86-3.69-3.99-9.85-0.36-16.5l8.84-16.43c1.72-3.13,1.53-4.82,1.38-5.1c-0.14,0.02-1.84-0.1-4.91,1.77L843.95,163.79z
			 M907.6,205.07h0.09H907.6z"/>
	</g>
	<g>
		<path class="st4" d="M429.61,981.27c-0.58,0-1.15-0.02-1.73-0.06c-6.22-0.49-12.05-3.05-16.46-7.23l-11.69-11.07
			c-0.92-0.88-1.46-2.09-1.5-3.35c-0.03-1.27,0.44-2.51,1.31-3.42l603.01-636.1c0.87-0.93,2.08-1.46,3.35-1.5
			c1.23-0.04,2.5,0.44,3.42,1.31l11.7,11.08c3.91,3.71,6.6,8.48,7.75,13.81c1.68,8.63-0.85,17.44-6.75,23.66L448.88,972.98
			C443.84,978.31,436.9,981.27,429.61,981.27z M409.8,959.25l8.21,7.77c3.62,3.43,7.74,4.41,10.56,4.64
			c4.99,0.27,9.9-1.59,13.37-5.27l573.13-604.58c3.77-3.98,5.39-9.65,4.32-15.15c-0.72-3.33-2.44-6.4-4.96-8.77l-8.22-7.79
			L409.8,959.25z"/>
	</g>
	<g>
		<path class="st4" d="M403.03,964.22c-1.18,0-2.37-0.44-3.29-1.31L238.48,810.05c-4.13-3.93-6.81-8.9-7.75-14.41
			c-1.57-8.29,0.94-16.94,6.75-23.06L810.61,168c5.93-6.25,14.63-9.18,23.27-7.97c5.42,0.87,10.31,3.27,14.2,6.97l161.24,152.85
			c0.93,0.88,1.46,2.09,1.5,3.35c0.03,1.27-0.44,2.51-1.31,3.42L406.5,962.72C405.56,963.72,404.29,964.22,403.03,964.22z
			 M829.84,169.31c-4.65,0-9.04,1.85-12.28,5.28L244.43,779.17c-3.69,3.9-5.29,9.42-4.27,14.77c0.6,3.55,2.3,6.68,4.92,9.16
			l157.77,149.57l596.42-629.15L841.49,173.95c0,0,0-0.01,0-0.01c-2.52-2.39-5.57-3.88-9.06-4.43
			C831.56,169.38,830.7,169.31,829.84,169.31z"/>
	</g>
	<g>
		<path class="st4" d="M381.17,1008.6c-2.71,0-5.11-0.89-6.97-2.67c-3.86-3.69-3.99-9.86-0.36-16.51l8.84-16.42
			c1.69-3.15,1.5-4.84,1.36-5.13c-0.12,0.03-1.82-0.07-4.88,1.79l-15.88,9.76c-6.51,3.97-12.72,4.12-16.59,0.43
			c-3.86-3.69-3.99-9.85-0.36-16.5l8.84-16.43c1.69-3.14,1.5-4.84,1.36-5.12c-0.12,0.03-1.82-0.07-4.88,1.79l-15.88,9.76
			c-6.52,3.97-12.71,4.14-16.58,0.44c-3.86-3.68-3.99-9.85-0.36-16.51l8.84-16.42c1.72-3.14,1.52-4.83,1.38-5.1
			c-0.14,0.01-1.84-0.11-4.91,1.76l-15.87,9.76c-6.53,3.97-12.72,4.12-16.59,0.43c-3.86-3.69-3.99-9.86-0.36-16.51l8.84-16.42
			c1.72-3.14,1.53-4.82,1.38-5.1c-0.14,0.01-1.84-0.1-4.91,1.76l-15.88,9.76c-6.51,3.97-12.68,4.12-16.54,0.48
			c-3.86-3.66-4.02-9.84-0.42-16.53l8.86-16.45c1.72-3.14,1.52-4.82,1.38-5.1c-0.13,0.01-1.84-0.1-4.91,1.76l-15.87,9.76
			c-6.51,3.96-12.69,4.12-16.54,0.48c-3.86-3.66-4.02-9.83-0.42-16.52l8.86-16.46c1.72-3.13,1.52-4.82,1.38-5.09
			c-0.14,0.01-1.84-0.11-4.91,1.76l-15.87,9.76c-6.51,3.96-12.69,4.14-16.54,0.49c-3.86-3.66-4.02-9.84-0.42-16.53l21.71-40.27
			c0.63-1.18,1.73-2.03,3.03-2.37c1.27-0.34,3.03-0.22,4.16,0.53c1.12,0.72,2.25,1.8,2.48,3.11c0.58,3.45,2.28,6.58,4.9,9.06
			L418,967.03c3.62,3.43,7.74,4.41,10.56,4.64c1.8,0.13,3.36,1.26,4.05,2.93c0.69,1.66,0.4,3.56-0.77,4.94l-0.94,1.1
			c-0.33,0.39-0.72,0.72-1.15,0.99l-38.98,23.89C387.39,1007.56,384.1,1008.6,381.17,1008.6z M383.79,958.39
			c2.69,0,5.06,0.87,6.91,2.62c3.86,3.66,4.02,9.84,0.42,16.53l-8.85,16.45c-1.72,3.14-1.53,4.83-1.38,5.1
			c0.14-0.01,1.84,0.11,4.91-1.76l31.37-19.22c-2.09-1.11-4.02-2.5-5.74-4.12L238.48,810.05c-1.5-1.42-2.81-2.98-3.91-4.66
			l-17.35,32.16c-1.69,3.15-1.5,4.85-1.35,5.13c0.12-0.03,1.82,0.07,4.88-1.79l15.88-9.76c6.52-3.97,12.72-4.13,16.59-0.43
			c3.86,3.69,3.99,9.85,0.36,16.5l-8.84,16.43c-1.69,3.14-1.5,4.85-1.36,5.13c0.12-0.03,1.82,0.07,4.88-1.79l15.88-9.76
			c6.51-3.98,12.72-4.13,16.59-0.44c3.86,3.69,3.99,9.86,0.36,16.51l-8.84,16.42c-1.69,3.15-1.5,4.84-1.35,5.13
			c0.12-0.03,1.82,0.07,4.88-1.79l15.87-9.76c6.51-3.98,12.72-4.14,16.58-0.44c3.86,3.69,3.99,9.86,0.36,16.51l-8.84,16.42
			c-1.72,3.14-1.53,4.83-1.38,5.1c0.14-0.01,1.84,0.11,4.91-1.76l15.87-9.76c6.53-3.97,12.72-4.12,16.59-0.43
			c3.86,3.69,3.99,9.86,0.36,16.51l-8.84,16.42c-1.72,3.14-1.52,4.83-1.38,5.1c0.13-0.01,1.84,0.1,4.9-1.76l15.88-9.76
			c6.51-3.97,12.69-4.13,16.54-0.48c3.85,3.66,4.01,9.84,0.42,16.52l-8.86,16.46c-1.72,3.13-1.52,4.82-1.38,5.09
			c0.14-0.01,1.84,0.11,4.91-1.76l15.87-9.76C377.55,959.43,380.85,958.39,383.79,958.39z"/>
	</g>
	<g>
		<path class="st0" d="M345.13,760.72l28.12-29.66c11.64-12.28,23.05-19.52,34.22-21.72c11.17-2.2,21.06,0.78,29.67,8.94
			c5.42,5.14,8.6,11.29,9.53,18.46c0.93,7.16-0.21,14.64-3.43,22.42c-3.21,7.78-8.1,15.14-14.68,22.08l-4.76,5.02l28.11,26.65
			l-24.49,25.84L345.13,760.72z M418.71,753.04c0.44-3.97-1.02-7.55-4.37-10.72c-3.35-3.17-6.94-4.42-10.77-3.73
			c-3.83,0.69-7.78,3.18-11.86,7.49l-4.88,5.14l20.09,19.05c1.67-1.44,3.38-3.08,5.12-4.92
			C416.06,761.12,418.28,757.02,418.71,753.04z"/>
		<path class="st0" d="M515.1,708.38l-15.15-8.69l-5.33,5.62l31.22,29.59L501,761.1l-82.29-78.01l34.36-36.24
			c6.5-6.86,13.24-11.93,20.23-15.23c6.98-3.29,13.67-4.64,20.06-4.03c6.39,0.61,11.98,3.18,16.76,7.71
			c5.34,5.06,8.6,10.61,9.77,16.64c1.17,6.03,0.34,12.86-2.49,20.47c3.56,2.32,6.92,4.29,10.07,5.91c3.94,1.92,7.3,2.6,10.08,2.06
			c2.78-0.54,5.69-2.41,8.71-5.6c1.06-1.12,2.56-3.02,4.51-5.71l19.5,18.48c-2.12,5.11-4.88,9.46-8.28,13.04
			C547.78,715.59,532.15,718.19,515.1,708.38z M482.18,684.9c5.59-5.9,8.88-10.69,9.88-14.37c0.99-3.68-0.11-7.03-3.3-10.06
			c-2.71-2.57-5.63-3.44-8.75-2.62c-3.13,0.82-6.73,3.38-10.81,7.69l-7.82,8.25l16.51,15.65L482.18,684.9z"/>
		<path class="st0" d="M592.14,657.77c-9.98,3.18-19.97,3.55-29.99,1.09c-10.01-2.45-19.17-7.61-27.46-15.47
			c-8.37-7.94-14.07-16.86-17.09-26.77c-3.02-9.91-3.19-19.91-0.51-30c2.68-10.1,8.11-19.45,16.27-28.06
			c8.16-8.61,17.21-14.53,27.15-17.75c9.94-3.22,19.92-3.6,29.93-1.15c10.01,2.45,19.25,7.69,27.7,15.7
			c8.29,7.86,13.93,16.73,16.91,26.59c2.99,9.87,3.14,19.89,0.45,30.07c-2.68,10.17-8.07,19.53-16.15,28.06
			C611.2,648.69,602.12,654.59,592.14,657.77z M603.47,601.51c-0.84-6.93-4.46-13.42-10.84-19.47c-4.23-4.01-8.69-6.84-13.4-8.5
			c-4.71-1.66-9.24-2.06-13.61-1.21c-4.37,0.86-8.14,2.96-11.31,6.31c-3.1,3.27-4.96,7.11-5.58,11.51
			c-0.62,4.41,0.05,8.9,1.99,13.47c1.95,4.57,5.04,8.86,9.26,12.87c6.38,6.05,13.04,9.33,19.97,9.84
			c6.93,0.52,12.81-1.78,17.65-6.88C602.35,614.42,604.31,608.44,603.47,601.51z"/>
		<path class="st0" d="M615.81,511.59l-16.21,17.1l-18.18-17.23l58.85-62.08l18.18,17.23l-16.21,17.1l64.11,60.77l-26.42,27.87
			L615.81,511.59z"/>
		<path class="st0" d="M650.92,438.14l54.76-57.77l18.18,17.23l-27.21,28.7l14.95,14.17l24.83-26.19l15.07,14.29l-24.83,26.19
			l15.91,15.08l27.21-28.7l18.18,17.23l-54.76,57.77L650.92,438.14z"/>
		<path class="st0" d="M718.38,366.98l26.19-27.63l82.29,78.01l-26.19,27.63L718.38,366.98z"/>
		<path class="st0" d="M759.31,323.8l22.79-24.04l75.44,9.29l-44.37-42.07l20.3-21.41l82.29,78.01l-22.68,23.92l-74.11-7.58
			l42.82,40.59l-20.18,21.29L759.31,323.8z"/>
	</g>
</g>
</svg>
