<?xml version="1.0" encoding="utf-8"?>
<!-- Generator: Adobe Illustrator 26.2.1, SVG Export Plug-In . SVG Version: 6.00 Build 0)  -->
<svg version="1.1" id="Layer_1" xmlns="http://www.w3.org/2000/svg" xmlns:xlink="http://www.w3.org/1999/xlink" x="0px" y="0px"
	 viewBox="0 0 1200 1200" style="enable-background:new 0 0 1200 1200;" xml:space="preserve">
<style type="text/css">
	.st0{fill:#FFFFFF;}
	.st1{fill:#EDEDD3;}
	.st2{fill:#BCD167;}
	.st3{fill:#E6EBB7;}
	.st4{fill:#154D72;}
	.st5{fill:#9FB32A;}
	.st6{fill:none;}
</style>
<g>
	<path class="st2" d="M605.05,255.1c0.77,30.61,0.8,61.9-7.24,91.25c0.47-32.19-3.74-64.62-7.29-96.77
		c-3.71-33.72-6.57-68.24-2.48-101.7c7.81,0.1,15.7,0.23,23.54,0.4C602.36,182.92,604.09,219.29,605.05,255.1z"/>
	<path class="st3" d="M496.94,393.72c21.17-12.26,44.12-21.18,68.07-26.23c10.44-2.27,21.02-3.81,31.75-4.56
		c0.16,0.01,0.3-0.04,0.46-0.03c30.99-2.16,63.76,1.96,78.44,24.73c31.79,49.33,246.25,711.58,152.3,748.75
		C734,1173.56,437.33,543.82,426.77,486.1c-4.93-26.79,16.43-52.32,40.64-72c6.42-5.18,13.03-10.05,19.93-14.41
		C490.47,397.59,493.66,395.63,496.94,393.72z"/>
	<path class="st2" d="M540.24,183.73c0.64,21.26,2.47,42.75,3.59,64.05c-16.44-40.18-34.42-79.74-53.87-118.49
		c-1.61-13.5-3.29-26.97-4.97-40.44c12.89-0.98,25.89-0.53,38.71,1.46C529.26,121.44,534.75,152.58,540.24,183.73z"/>
	<path class="st2" d="M596.76,362.92c-10.73,0.75-21.31,2.29-31.75,4.56c-10.27-7.12-19.83-14.99-29.05-23.38l0.43-0.48
		c8.93-31.03,9.05-63.31,7.44-95.84c-1.13-21.3-2.95-42.79-3.59-64.05c-0.94-27.9,0.26-55.48,7.97-82.14
		c15.66,4.44,30.79,10.89,44.9,19.05c-2.34,9-3.97,18.04-5.07,27.25c-4.08,33.46-1.22,67.98,2.48,101.7
		c3.55,32.15,7.76,64.58,7.29,96.77c0.01,5.51-0.22,11.04-0.6,16.55C597.05,362.89,596.92,362.94,596.76,362.92z"/>
	<path class="st2" d="M543.83,247.79c1.61,32.53,1.48,64.81-7.44,95.84l-0.43,0.48c-11.29-10.29-21.91-21.23-32.31-32.58l-0.03-0.07
		c-13.76-38.91-28.96-77.32-45.34-115.19c-16.46-38.07-34.13-75.66-53.15-112.56c14.75-10.42,31.61-17.87,49.29-21.67
		c12.4,22.12,24.23,44.55,35.54,67.26C509.41,168.05,527.39,207.61,543.83,247.79z"/>
	<path class="st2" d="M503.65,311.53c10.39,11.35,21.01,22.29,32.31,32.58c9.22,8.39,18.78,16.26,29.05,23.38
		c-23.95,5.05-46.9,13.97-68.07,26.23c-32.15-37.69-55.6-83.4-86.75-122.49c-8.38-10.59-17.36-20.71-26.96-30.26
		c-10.88-11-22.49-21.32-34.79-30.82c6.09-10.72,14.25-20.32,23.97-27.97c17.56,10.61,33.55,23.54,48.51,37.82
		c18.03,17.1,34.63,36.09,50.78,54.94c10.51,12.23,21.04,24.53,31.93,36.53L503.65,311.53z"/>
	<path class="st2" d="M471.69,274.93c-16.16-18.85-32.76-37.84-50.78-54.94c-12.37-24.39-24.71-48.71-37.14-73.07
		c7.86-7.23,16.84-13.19,26.5-17.63c17.78,21,33.79,43.41,48.01,66.99c16.38,37.87,31.58,76.28,45.34,115.19
		C492.74,299.46,482.2,287.16,471.69,274.93z"/>
	<path class="st2" d="M487.34,399.69c-37.87-46.84-83.91-87.04-135.57-118.09c-0.28-4.63,1.42-9.18,3.47-13.41
		c5.99-11.77,16.04-21.49,27.99-27.23c9.61,9.56,18.58,19.68,26.96,30.26c31.15,39.09,54.6,84.81,86.75,122.49
		C493.66,395.63,490.47,397.59,487.34,399.69z"/>
	<g>
		<path class="st4" d="M597.82,350.67c-0.2,0-0.4-0.02-0.61-0.04c-2.15-0.3-3.74-2.17-3.71-4.33c0.41-28.13-2.85-56.96-5.99-84.85
			l-1.28-11.39c-3.44-31.3-6.76-67.63-2.48-102.69c0.26-2.18,1.85-3.92,4.34-3.79c7.82,0.1,15.73,0.23,23.57,0.4
			c1.33,0.03,2.56,0.66,3.36,1.72c0.8,1.06,1.06,2.42,0.73,3.71c-8.46,31.82-7.5,65.82-6.57,98.71l0.19,6.88c0,0,0,0.01,0,0.01
			c0.76,30.37,0.82,62.51-7.39,92.5C601.46,349.39,599.74,350.67,597.82,350.67z M591.88,152.26c-3.48,32.98-0.33,67.2,2.93,96.86
			l1.27,11.37c1.54,13.65,3.11,27.53,4.26,41.47c0.98-15.64,0.77-31.42,0.39-46.74l-0.19-6.87c-0.9-31.71-1.82-64.44,5.53-95.86
			C601.34,152.41,596.6,152.33,591.88,152.26z"/>
	</g>
	<g>
		<path class="st4" d="M819.43,1142.28c-6.79,0-14.3-2.27-22.43-6.78c-116.4-64.57-364.09-591.87-374.48-648.63
			c-4.45-24.16,9.74-49.78,42.17-76.12c7.12-5.74,13.77-10.56,20.35-14.71c3.12-2.08,6.37-4.09,9.73-6.04c0,0,0.01-0.01,0.01-0.01
			c21.81-12.63,45.14-21.62,69.34-26.73c10.72-2.33,21.61-3.89,32.34-4.65c0.17-0.01,0.83-0.03,0.98-0.03
			c40.85-2.92,68.57,6.1,81.85,26.71c31.25,48.5,211.35,602.54,170.64,729.27c-4.34,13.51-11.2,22.21-20.38,25.84
			C826.38,1141.66,823,1142.28,819.43,1142.28z M499.1,397.45c-3.2,1.87-6.31,3.79-9.36,5.83c-6.39,4.04-12.78,8.66-19.62,14.17
			c-29.78,24.2-42.94,47.03-39.11,67.86c8.17,44.64,255.63,579.1,370.18,642.65c10.03,5.56,18.51,7.04,25.18,4.42
			c6.67-2.64,11.83-9.52,15.34-20.45c40.07-124.72-145.1-683.81-169.68-721.96c-14.26-22.11-48.38-24.6-74.51-22.76
			c-0.25,0.02-0.96,0.03-1.2,0.01c-9.57,0.73-20.04,2.24-30.39,4.49C542.6,376.62,520.12,385.28,499.1,397.45L499.1,397.45z"/>
	</g>
	<g>
		<path class="st4" d="M543.83,252.1c-1.72,0-3.32-1.03-4-2.68c-16.35-39.97-34.43-79.73-53.73-118.19
			c-0.22-0.45-0.37-0.93-0.43-1.42c-1.61-13.49-3.28-26.95-4.97-40.42c-0.15-1.17,0.19-2.35,0.94-3.27
			c0.75-0.91,1.84-1.48,3.01-1.57c13.38-1.02,26.74-0.51,39.7,1.5c1.82,0.28,3.26,1.69,3.59,3.51
			c5.56,31.13,11.04,62.28,16.53,93.43c0.04,0.21,0.06,0.41,0.07,0.62c0.4,13.31,1.29,26.97,2.14,40.18
			c0.51,7.94,1.02,15.87,1.45,23.78c0.11,2.1-1.31,3.98-3.37,4.44C544.46,252.07,544.14,252.1,543.83,252.1z M494.16,128.03
			c15.47,30.87,30.16,62.57,43.81,94.53c-0.82-12.62-1.64-25.63-2.03-38.39c-5.29-30.02-10.58-60.04-15.93-90.04
			c-9.9-1.35-20.01-1.78-30.16-1.26C491.3,104.58,492.76,116.3,494.16,128.03z"/>
	</g>
	<g>
		<path class="st4" d="M565.01,371.8c-0.87,0-1.73-0.26-2.46-0.77c-9.62-6.66-19.27-14.43-29.5-23.73
			c-1.66-1.51-1.87-4.01-0.56-5.78c8.7-30.86,8.52-63.18,7.02-93.53c-0.41-7.86-0.93-15.76-1.44-23.66
			c-0.86-13.28-1.75-27.01-2.16-40.47c-1.15-34.26,1.36-60.01,8.14-83.47c0.67-2.28,3.04-3.61,5.33-2.96
			c15.95,4.53,31.38,11.08,45.88,19.47c1.68,0.97,2.5,2.94,2.01,4.82c-2.21,8.52-3.84,17.25-4.96,26.67
			c-4.17,34.17-0.9,69.9,2.49,100.71l1.27,11.37c3.18,28.15,6.46,57.27,6.04,85.93c0,5.27-0.19,10.77-0.61,16.78
			c-0.16,2.33-2.23,3.98-4.47,4.02v0.02c-10.31,0.72-20.78,2.23-31.13,4.47C565.62,371.77,565.31,371.8,565.01,371.8z
			 M541.07,342.91c8.59,7.69,16.76,14.25,24.87,19.96c9.04-1.89,18.16-3.23,27.19-4c0.23-4.17,0.36-8.35,0.36-12.52
			c0.41-28.18-2.85-57.02-5.99-84.91l-1.28-11.39c-3.44-31.3-6.76-67.63-2.48-102.69c1.02-8.62,2.46-16.71,4.36-24.59
			c-11.77-6.55-24.16-11.86-36.92-15.8c-5.64,21.46-7.7,45.33-6.64,76.61c0.4,13.32,1.29,26.98,2.15,40.19
			c0.51,7.94,1.02,15.87,1.45,23.78C549.66,278.35,549.84,311.16,541.07,342.91z"/>
	</g>
	<g>
		<path class="st4" d="M535.97,348.18c-1.04,0-2.17-0.21-2.92-0.89c-10.28-9.37-20.63-19.8-32.58-32.85
			c-0.38-0.41-0.67-0.89-0.86-1.4c-13.35-37.76-28.57-76.42-45.28-115.06c-16.81-38.86-34.65-76.64-53.03-112.3
			c-0.99-1.91-0.41-4.26,1.34-5.5c15.2-10.74,32.8-18.48,50.87-22.37c1.88-0.4,3.75,0.46,4.67,2.11
			c12.13,21.64,24.12,44.34,35.64,67.45c19.39,38.65,37.57,78.62,54,118.78c0.19,0.46,0.29,0.94,0.32,1.42
			c1.55,31.39,1.7,64.9-7.61,97.24c-0.18,0.62-0.5,1.2-0.93,1.68c-0.77,0.86-2.06,1.62-3.21,1.68
			C536.25,348.18,536.11,348.18,535.97,348.18z M507.42,309.26c9.6,10.45,18.14,19.19,26.46,27.04c7.23-29.02,7.06-59.14,5.67-87.56
			C523.28,209,505.3,169.47,486.1,131.23c-10.96-22-22.35-43.6-33.87-64.27c-14.65,3.55-28.88,9.77-41.52,18.16
			c17.86,34.82,35.19,71.62,51.54,109.44C478.92,233.12,494.12,271.7,507.42,309.26z"/>
	</g>
	<g>
		<path class="st4" d="M496.95,398.04c-1.23,0-2.44-0.52-3.29-1.52c-17.44-20.44-32.53-43.5-47.12-65.81
			c-12.5-19.1-25.42-38.85-39.73-56.8c-8.42-10.63-17.38-20.68-26.63-29.9c-10.85-10.97-22.41-21.21-34.39-30.46
			c-1.7-1.31-2.17-3.68-1.11-5.55c6.39-11.24,15.05-21.35,25.05-29.23c1.41-1.12,3.37-1.23,4.91-0.3
			c16.55,10,32.66,22.56,49.26,38.39c18.39,17.44,35.32,36.85,51.08,55.25l1.4,1.62c9.88,11.5,20.09,23.39,30.45,34.82
			c0.1,0.12,0.2,0.24,0.29,0.35c11.66,12.71,21.75,22.89,31.75,31.99c9.94,9.05,19.3,16.58,28.61,23.02
			c1.42,0.99,2.12,2.71,1.77,4.4c-0.34,1.69-1.66,3.02-3.34,3.37c-23.3,4.92-45.78,13.57-66.8,25.75
			C498.43,397.85,497.68,398.04,496.95,398.04z M354.08,209.08c11.21,8.86,22.03,18.55,32.21,28.84
			c9.47,9.43,18.66,19.74,27.28,30.62c14.55,18.25,27.58,38.17,40.19,57.45c13.8,21.08,28.04,42.84,44.17,62.2
			c18.07-10.1,37.15-17.74,56.87-22.76c-7.08-5.33-14.26-11.31-21.75-18.13c-10.28-9.37-20.63-19.8-32.58-32.85
			c-0.11-0.13-0.22-0.25-0.32-0.39c-10.34-11.42-20.5-23.25-30.33-34.69l-1.4-1.63c-15.62-18.22-32.38-37.45-50.48-54.61
			c-15.27-14.57-30.08-26.26-45.18-35.67C365.53,193.55,359.16,200.94,354.08,209.08z"/>
	</g>
	<g>
		<path class="st4" d="M503.62,315.78c-1.18,0-2.36-0.49-3.2-1.42c-10.44-11.52-20.69-23.45-30.6-35l-1.4-1.63c0,0,0,0,0,0
			c-15.62-18.22-32.38-37.44-50.48-54.61c-0.36-0.34-0.65-0.74-0.88-1.18c-12.36-24.39-24.7-48.7-37.14-73.06
			c-0.88-1.73-0.51-3.83,0.92-5.14c8.19-7.53,17.48-13.71,27.62-18.37c1.74-0.83,3.84-0.36,5.1,1.13
			c17.71,20.91,34,43.64,48.42,67.55c17.05,39.34,32.34,78.19,45.71,115.98c0.69,1.94-0.09,4.1-1.85,5.15
			C505.15,315.57,504.38,315.78,503.62,315.78z M474.97,272.11l1.4,1.63c5.1,5.94,10.29,11.98,15.54,18.01
			c-11.39-30.88-23.99-62.33-37.59-93.77c-13.35-22.05-28.62-43.5-45.21-63.36c-7.2,3.6-13.9,8.06-19.99,13.3
			c11.81,23.15,23.54,46.27,35.29,69.45C442.61,234.69,459.36,253.9,474.97,272.11L474.97,272.11z"/>
	</g>
	<g>
		<path class="st4" d="M487.35,404c-1.26,0-2.51-0.56-3.36-1.6c-37.88-46.86-83.12-86.25-134.44-117.1c-1.22-0.73-2-2.02-2.08-3.44
			c-0.36-5.94,1.89-11.44,3.89-15.56c6.45-12.68,17.09-23.03,30-29.23c1.64-0.8,3.62-0.46,4.91,0.83
			c9.5,9.45,18.68,19.76,27.31,30.65c14.55,18.25,27.58,38.17,40.19,57.45c14.45,22.07,29.38,44.9,46.47,64.93
			c0.83,0.97,1.18,2.26,0.97,3.52c-0.21,1.26-0.98,2.36-2.08,3c-3.2,1.87-6.32,3.79-9.37,5.83C489,403.77,488.17,404,487.35,404z
			 M356.13,279.19c50.21,30.51,94.63,69.09,132.11,114.77c0.71-0.45,1.42-0.89,2.14-1.34c-16.07-19.45-30.17-41.01-43.84-61.91
			c-12.5-19.1-25.42-38.85-39.73-56.8c-7.75-9.78-15.95-19.08-24.42-27.67c-9.99,5.48-18.2,13.87-23.3,23.9
			C357.85,272.68,356.46,275.93,356.13,279.19z"/>
	</g>
	<g>
		<path class="st4" d="M443.31,536.75c-1.02,0-2.03-0.35-2.85-1.08c-1.79-1.58-1.96-4.3-0.38-6.09
			c0.98-1.1,99.54-110.62,255.42-101.13c2.38,0.14,4.19,2.19,4.04,4.58c-0.15,2.38-2.24,4.32-4.57,4.04
			c-151.66-9.35-247.46,97.14-248.42,98.22C445.69,536.26,444.5,536.75,443.31,536.75z"/>
	</g>
	<g>
		<path class="st4" d="M490.47,642.57c-0.98,0-1.96-0.33-2.77-1c-1.83-1.53-2.07-4.25-0.54-6.08c0.82-0.98,83.42-97.62,244.41-97.62
			c0.59,0,1.16,0,1.74,0c2.39,0.01,4.31,1.95,4.3,4.33c-0.01,2.38-1.94,4.3-4.32,4.3c-0.46-0.21-1.15,0-1.72,0
			c-156.78,0-236.99,93.57-237.78,94.53C492.93,642.04,491.71,642.57,490.47,642.57z"/>
	</g>
	<g>
		<path class="st4" d="M539.63,743.39c-1.13,0-2.25-0.44-3.1-1.31c-1.66-1.71-1.62-4.44,0.09-6.1c0.92-0.9,93.99-89.75,229.75-90.94
			c0.01,0,0.03,0,0.04,0c2.37,0,4.3,1.91,4.32,4.28c0.02,2.38-1.9,4.33-4.28,4.35c-132.35,1.16-222.91,87.63-223.81,88.5
			C541.8,742.99,540.72,743.39,539.63,743.39z"/>
	</g>
	<g>
		<path class="st4" d="M599.24,856.89c-1.28,0-2.55-0.56-3.4-1.65c-1.47-1.88-1.14-4.59,0.73-6.06
			c4.25-3.32,105.19-81.61,204.07-80.58c2.39,0.03,4.3,1.97,4.28,4.36c-0.02,2.37-1.95,4.27-4.32,4.27
			c-0.59,0.06-1.09-0.01-1.63-0.01c-95.43,0-196.06,77.96-197.07,78.75C601.11,856.59,600.17,856.89,599.24,856.89z"/>
	</g>
	<g>
		<path class="st4" d="M652.56,950.09c-1.2,0-2.38-0.49-3.24-1.46c-1.58-1.78-1.41-4.51,0.37-6.09
			c2.69-2.39,67.06-58.44,175.35-69.47c2.4-0.25,4.49,1.48,4.73,3.85s-1.49,4.49-3.86,4.73C720.53,892.4,656.05,948.43,655.41,949
			C654.59,949.73,653.57,950.09,652.56,950.09z"/>
	</g>
	<g>
		<path class="st4" d="M710.5,1040c-1.23,0-2.45-0.52-3.31-1.54c-1.53-1.82-1.3-4.54,0.53-6.08c2.21-1.85,55.03-45.59,136.57-54.09
			c2.38-0.27,4.5,1.48,4.74,3.84c0.25,2.37-1.47,4.49-3.84,4.74c-78.79,8.22-131.38,51.68-131.9,52.12
			C712.46,1039.67,711.48,1040,710.5,1040z"/>
	</g>
	<g>
		<path class="st4" d="M533.77,344.07c-1.93,0-3.69-1.31-4.18-3.27c-23.42-93.49-58.74-183.78-104.97-268.34
			c-1.15-2.09-0.38-4.71,1.72-5.85c2.09-1.16,4.71-0.38,5.86,1.72c46.59,85.21,82.18,176.18,105.77,270.39
			c0.58,2.31-0.83,4.65-3.14,5.24C534.47,344.03,534.12,344.07,533.77,344.07z"/>
	</g>
	<g>
		<path class="st4" d="M561.16,372.7c-0.25,0-0.51-0.03-0.77-0.07c-2.34-0.42-3.9-2.67-3.48-5.02c7.06-39.17,5.06-80.17,3.12-119.82
			c-2.23-45.73-4.55-93.02,6.93-138.2c0.58-2.32,2.92-3.7,5.24-3.12c2.31,0.59,3.71,2.94,3.12,5.25
			c-11.15,43.92-8.87,90.55-6.67,135.65c1.96,40.13,3.99,81.63-3.25,121.78C565.02,371.23,563.21,372.7,561.16,372.7z"/>
	</g>
	<g>
		<path class="st4" d="M523.64,383.74c-1.27,0-2.53-0.56-3.38-1.63l-72.34-90.66c-26.75-33.53-54.41-68.2-90.23-92.87
			c-1.96-1.35-2.46-4.04-1.1-6c1.35-1.96,4.03-2.46,6-1.1c36.88,25.39,64.94,60.57,92.08,94.6L527,376.73
			c1.49,1.86,1.18,4.58-0.68,6.06C525.53,383.42,524.58,383.74,523.64,383.74z"/>
	</g>
</g>
</svg>
