<?xml version="1.0" encoding="utf-8"?>
<!-- Generator: Adobe Illustrator 26.2.1, SVG Export Plug-In . SVG Version: 6.00 Build 0)  -->
<svg version="1.1" id="Layer_1" xmlns="http://www.w3.org/2000/svg" xmlns:xlink="http://www.w3.org/1999/xlink" x="0px" y="0px"
	 viewBox="0 0 1200 1200" style="enable-background:new 0 0 1200 1200;" xml:space="preserve">
<style type="text/css">
	.st0{fill:#FFFFFF;}
	.st1{fill:#EDEDD3;}
	.st2{fill:#BCD167;}
	.st3{fill:#E6EBB7;}
	.st4{fill:#154D72;}
	.st5{fill:#9FB32A;}
	.st6{fill:none;}
</style>
<g>
	<path class="st2" d="M774.6,598.36V847.2c0,95.97-78.74,174.4-174.71,174.4c-95.97,0-174.4-78.43-174.4-174.4V598.36
		C425.49,598.36,564.21,677.41,774.6,598.36z"/>
	<path class="st0" d="M774.6,333.22v265.14c-210.39,79.05-349.11,0-349.11,0V333.22c0-95.97,78.43-174.4,174.4-174.4
		c47.98,0,91.66,19.69,123.34,51.37C754.91,241.56,774.6,285.24,774.6,333.22z"/>
	<g>
		<path class="st4" d="M599.9,1040c-106.28,0-192.78-86.49-192.78-192.81V598.37c0-6.53,3.48-12.57,9.12-15.87
			c5.67-3.27,12.64-3.27,18.31-0.14c1.37,0.75,134.57,73.57,333.59-1.18c5.6-2.12,11.99-1.33,16.95,2.08
			c4.96,3.45,7.9,9.08,7.9,15.12v248.82C792.99,953.51,706.35,1040,599.9,1040z M443.89,626.77v220.42
			c0,86.03,69.98,156.04,156.01,156.04c86.21,0,156.33-70.01,156.33-156.04V624.33C605.1,673.98,493.15,645.62,443.89,626.77z"/>
	</g>
	<g>
		<path class="st4" d="M590.13,652.08c-105.7,0-169.76-35.47-173.71-37.74c-5.75-3.27-9.3-9.37-9.3-15.98V333.21
			c0-106.28,86.5-192.78,192.78-192.78c51.34,0,99.78,20.18,136.33,56.77c36.59,36.26,56.77,84.56,56.77,136.01v265.16
			c0,7.65-4.74,14.51-11.92,17.2C708.29,642.93,643.84,652.08,590.13,652.08z M443.89,586.84c32.75,14.43,149.47,55.83,312.34-1.36
			V333.21c0-41.54-16.3-80.61-45.92-109.94c-29.69-29.73-68.9-46.07-110.41-46.07c-86.03,0-156.01,69.98-156.01,156.01V586.84z
			 M774.61,598.37h0.36H774.61z"/>
	</g>
</g>
</svg>
