<?xml version="1.0" encoding="utf-8"?>
<!-- Generator: Adobe Illustrator 26.2.1, SVG Export Plug-In . SVG Version: 6.00 Build 0)  -->
<svg version="1.1" id="Layer_1" xmlns="http://www.w3.org/2000/svg" xmlns:xlink="http://www.w3.org/1999/xlink" x="0px" y="0px"
	 viewBox="0 0 1200 1200" style="enable-background:new 0 0 1200 1200;" xml:space="preserve">
<style type="text/css">
	.st0{fill:#FFFFFF;}
	.st1{fill:#EDEDD3;}
	.st2{fill:#BCD167;}
	.st3{fill:#E6EBB7;}
	.st4{fill:#154D72;}
	.st5{fill:#9FB32A;}
	.st6{fill:none;}
</style>
<g>
	<path class="st2" d="M1103.37,493.33c-0.68,32.65-4.68,91.5-20.29,186.24c-15.62,94.82-30.7,151.76-40.55,182.98
		c-6.56,20.79-25.28,35.2-47.02,36.9c-58.18,4.44-110.92-10.02-145.17-23.09c-23.77-9.03-37.99-33.41-33.86-58.48l2.17-13.18
		c9.63-58.42-36.19-81.4-99.87-79.6c-63.7,1.88-137.65-10.63-137.65-10.63s-74.06-11.87-133.78-34.09
		c-59.74-22.14-110.51-15.07-120.13,43.34l-2.17,13.18c-4.13,25.07-25.42,43.6-50.83,44.53c-36.63,1.39-91.23-1.83-144.9-24.7
		c-20.04-8.58-33.07-28.23-32.69-50.04c0.69-32.73,4.76-91.49,20.38-186.3c15.61-94.74,30.62-151.77,40.46-182.91
		c6.64-20.78,25.28-35.2,47.02-36.9c58.18-4.45,110.94,9.94,145.18,23.01c23.75,9.11,37.98,33.49,33.85,58.56l-2.17,13.18
		c-9.61,58.34,36.19,81.4,99.87,79.59c63.7-1.88,137.65,10.63,137.65,10.63s74.06,11.87,133.78,34.09
		c59.74,22.14,110.52,14.99,120.13-43.34l2.17-13.18c4.13-25.07,25.42-43.6,50.85-44.61c36.63-1.39,91.22,1.91,144.89,24.78
		C1090.72,451.88,1103.83,471.54,1103.37,493.33z"/>
	<g>
		<path class="st4" d="M973.81,905.14c-50.33,0-95.03-12.72-125.19-24.23c-25.87-9.83-41.4-36.67-36.93-63.81l2.17-13.18
			c3.37-20.44-0.31-36.95-10.92-49.1c-15.18-17.39-44.24-26-84.02-24.84c-63.44,1.93-137.85-10.58-138.6-10.7
			c-0.7-0.11-75.18-12.2-134.67-34.33c-37.31-13.84-67.58-15.02-87.55-3.43c-13.94,8.1-22.72,22.57-26.08,43l-2.17,13.19
			c-4.47,27.15-27.79,47.59-55.45,48.6c-36.93,1.39-92.4-1.82-147-25.1c-22.06-9.45-36.06-30.88-35.65-54.59
			c0.69-32.93,4.81-92.09,20.45-187.01c15.66-95.03,30.73-152.29,40.62-183.58c7.22-22.62,27.35-38.43,51.28-40.29
			c59.33-4.61,112.85,10.16,147.29,23.32c25.86,9.92,41.38,36.79,36.91,63.89l-2.17,13.18c-3.36,20.41,0.31,36.92,10.92,49.07
			c15.19,17.4,44.19,26.01,84.01,24.87c63.46-1.87,137.85,10.58,138.6,10.7c0.7,0.11,75.18,12.2,134.66,34.33
			c37.29,13.81,67.56,15,87.55,3.39c13.95-8.1,22.72-22.56,26.09-42.96l2.17-13.18c4.47-27.11,27.79-47.58,55.45-48.68
			c36.86-1.37,92.23,1.83,146.99,25.17c22.15,9.49,36.14,30.92,35.65,54.61c-0.68,33.08-4.77,92.36-20.35,186.93
			c-15.57,94.48-30.73,152.02-40.71,183.65c-7.14,22.61-27.27,38.42-51.29,40.29C988.44,904.87,981.06,905.14,973.81,905.14z
			 M725.67,720.15c39.24,0,68.4,9.72,84.6,28.26c12.61,14.44,17.05,33.65,13.19,57.08l-2.17,13.18
			c-3.72,22.61,9.23,44.95,30.79,53.14c33.58,12.83,85.65,27.22,143.07,22.79c20.03-1.56,36.81-14.71,42.75-33.51
			c9.88-31.33,24.91-88.39,40.39-182.3c15.49-94.01,19.54-152.79,20.22-185.56l0,0c0.41-19.7-11.26-37.54-29.74-45.45
			c-53.1-22.64-106.96-25.77-142.79-24.39c-23.06,0.91-42.51,17.96-46.23,40.52l-2.17,13.18c-3.86,23.41-14.22,40.17-30.8,49.8
			c-22.56,13.12-55.7,12.2-95.82-2.69c-58.57-21.79-132.12-33.73-132.86-33.84c-0.78-0.13-74.33-12.53-136.74-10.58
			c-42.68,1.17-74.45-8.54-91.62-28.2c-12.61-14.45-17.05-33.64-13.19-57.06l2.17-13.18c3.72-22.58-9.23-44.95-30.79-53.22
			c-33.5-12.79-85.52-27.16-143.07-22.7c-19.95,1.55-36.74,14.71-42.75,33.53c-9.79,30.97-24.73,87.75-40.29,182.21
			c-15.55,94.37-19.63,153.03-20.31,185.63c-0.34,19.72,11.33,37.57,29.74,45.45c52.93,22.58,106.9,25.68,142.81,24.32
			c23.06-0.85,42.49-17.85,46.21-40.45l2.17-13.18c3.86-23.44,14.22-40.2,30.8-49.83c22.55-13.11,55.69-12.16,95.83,2.72
			c58.58,21.79,132.13,33.73,132.86,33.84c0.78,0.13,74.28,12.52,136.74,10.58C721.02,720.17,723.37,720.15,725.67,720.15z"/>
	</g>
	<g>
		<path class="st4" d="M336.81,660.31c-2.35,0-4.42-1.7-4.8-4.1c-11.35-70.83,2.29-143.96,38.42-205.93
			c1.37-2.31,4.34-3.12,6.66-1.75c2.32,1.35,3.1,4.33,1.75,6.65c-34.5,59.16-48.07,131.87-37.23,199.49
			c0.43,2.65-1.38,5.15-4.04,5.58C337.32,660.3,337.07,660.31,336.81,660.31z"/>
	</g>
	<g>
		<path class="st4" d="M821.56,731.44c-0.74,0-1.49-0.17-2.2-0.52c-2.4-1.22-3.36-4.14-2.14-6.55
			c27.4-54.01,37.64-116.75,28.82-176.68c-0.39-2.66,1.45-5.13,4.11-5.53c2.65-0.32,5.13,1.45,5.52,4.11
			c9.11,61.9-1.46,126.73-29.77,182.52C825.05,730.47,823.34,731.44,821.56,731.44z"/>
	</g>
	<g>
		<path class="st4" d="M285.49,715.07c-0.32,0-0.64-0.03-0.96-0.09c-2.63-0.53-4.34-3.1-3.81-5.73
			c15.21-75.75,18.48-153.07,9.72-229.82c-3.12-27.32-7.91-56.07-21.77-81.18c-17.81-32.28-50.1-55.65-86.35-62.49
			c-2.64-0.49-4.38-3.04-3.88-5.68c0.5-2.64,3.06-4.37,5.68-3.88c39.07,7.38,73.86,32.55,93.07,67.36
			c14.71,26.66,19.84,57.82,22.91,84.78c8.87,77.76,5.56,156.1-9.85,232.84C289.8,713.47,287.77,715.07,285.49,715.07z"/>
	</g>
	<g>
		<path class="st4" d="M847.27,793.22c-0.36,0-0.71-0.04-1.07-0.11c-2.62-0.6-4.27-3.2-3.68-5.82
			c12.6-55.98,32.3-128.1,73.21-189.51c41.67-62.52,101.32-105.01,163.66-116.57c2.65-0.49,5.18,1.25,5.68,3.9
			c0.49,2.64-1.25,5.18-3.9,5.67c-59.77,11.08-117.12,52.06-157.34,112.41c-40.03,60.07-59.4,131.08-71.81,186.23
			C851.5,791.68,849.49,793.22,847.27,793.22z"/>
	</g>
</g>
</svg>
