<?xml version="1.0" encoding="utf-8"?>
<!-- Generator: Adobe Illustrator 26.2.1, SVG Export Plug-In . SVG Version: 6.00 Build 0)  -->
<svg version="1.1" id="Layer_1" xmlns="http://www.w3.org/2000/svg" xmlns:xlink="http://www.w3.org/1999/xlink" x="0px" y="0px"
	 viewBox="0 0 1200 1200" style="enable-background:new 0 0 1200 1200;" xml:space="preserve">
<style type="text/css">
	.st0{fill:#FFFFFF;}
	.st1{fill:#EDEDD3;}
	.st2{fill:#BCD167;}
	.st3{fill:#E6EBB7;}
	.st4{fill:#154D72;}
	.st5{fill:#9FB32A;}
	.st6{fill:none;}
</style>
<g>
	<polygon class="st3" points="900.14,497.94 900.14,702.05 702.18,702.05 702.18,900.14 497.94,900.14 497.94,702.05 299.86,702.05 
		299.86,497.94 497.94,497.94 497.94,299.86 702.18,299.86 702.18,497.94 	"/>
	<g>
		<path class="st4" d="M702.17,912.92H497.95c-7.07,0-12.79-5.72-12.79-12.79V714.85H299.87c-7.07,0-12.79-5.72-12.79-12.79V497.94
			c0-7.07,5.72-12.79,12.79-12.79h185.29V299.86c0-7.07,5.72-12.79,12.79-12.79h204.22c7.07,0,12.79,5.72,12.79,12.79v185.29h185.17
			c7.07,0,12.79,5.72,12.79,12.79v204.12c0,7.07-5.72,12.79-12.79,12.79H714.96v185.29C714.96,907.21,709.24,912.92,702.17,912.92z
			 M510.74,887.35h178.65V702.06c0-7.07,5.72-12.79,12.79-12.79h185.17V510.73H702.17c-7.07,0-12.79-5.72-12.79-12.79V312.65H510.74
			v185.29c0,7.07-5.72,12.79-12.79,12.79H312.66v178.55h185.29c7.07,0,12.79,5.72,12.79,12.79V887.35z"/>
	</g>
</g>
</svg>
