<?xml version="1.0" encoding="utf-8"?>
<!-- Generator: Adobe Illustrator 26.2.1, SVG Export Plug-In . SVG Version: 6.00 Build 0)  -->
<svg version="1.1" id="Layer_1" xmlns="http://www.w3.org/2000/svg" xmlns:xlink="http://www.w3.org/1999/xlink" x="0px" y="0px"
	 viewBox="0 0 1200 1200" style="enable-background:new 0 0 1200 1200;" xml:space="preserve">
<style type="text/css">
	.st0{fill:#FFFFFF;}
	.st1{fill:#EDEDD3;}
	.st2{fill:#BCD167;}
	.st3{fill:#E6EBB7;}
	.st4{fill:#154D72;}
	.st5{fill:#9FB32A;}
	.st6{fill:none;}
</style>
<g>
	<path class="st0" d="M845.04,461.82c0,0-1.7,12.82-16.15,13.89l-202.16,568.1c0,0-22.07,42.57-182.96-4.38
		c-160.84-46.93-156.61-94.71-156.61-94.71L422.3,357.08c-11.6-8.67-6.19-20.41-6.19-20.41c72.43,6.6,219.25,46.18,219.25,46.18
		S780.48,428.45,845.04,461.82z M608.86,1009.24L799.2,476.47c-49-29.94-171.52-67.31-171.52-67.31s-123.4-34.38-180.8-35.49
		L320.89,925.21c0,0,13.95,35.29,135.57,70.78C578.13,1031.49,608.86,1009.24,608.86,1009.24z"/>
	<path class="st2" d="M912.84,229.46l-23.14,31.5c0,0-13.28-7.3-34.96-16.48l0.02-0.05c-28.92-12.28-72.9-27.9-120.56-33.96
		c-39.61-5.11-81.71-3.49-119.82,12.13l-0.05-0.02c0,0,0,0-0.05-0.02l-4-69.77C642.98,151.88,765.15,154.21,912.84,229.46z"/>
	<path class="st2" d="M837.17,346.33c28.02,15.56,34.38,24.63,34.38,24.63l-26.51,90.87c-64.56-33.37-209.68-78.97-209.68-78.97
		s-146.82-39.58-219.25-46.18l26.51-90.87c0,0,10.24-4.22,42.23-2.27c32.91,1.99,88.87,10.64,180.27,37.31
		C756.58,307.52,808.36,330.31,837.17,346.33z"/>
	<path class="st2" d="M782.93,285.56c25.45,18.18,47.44,39.25,54.24,60.77c-28.81-16.02-80.59-38.81-172.05-65.49
		c-91.4-26.67-147.36-35.32-180.27-37.31c3.15-2.63,6.68-4.97,10.65-7.01c17.59-9.46,42.24-13.66,67.75-15
		c17.06-0.89,34.16-0.5,51.01,1.11l0.07-0.04l0.05,0.02c34.55,3.34,68.36,11.81,100.24,25.06
		C738.63,257.64,761.56,270.32,782.93,285.56z"/>
	<path class="st2" d="M799.2,476.47l-190.34,532.77c0,0-30.74,22.25-152.41-13.25c-121.62-35.49-135.57-70.78-135.57-70.78
		l125.99-551.54c57.41,1.11,180.8,35.49,180.8,35.49S750.2,446.53,799.2,476.47z"/>
	<path class="st4" d="M837.17,346.33c-6.8-21.52-28.79-42.59-54.24-60.77c-21.37-15.25-44.29-27.92-68.3-37.89l19.57-37.19
		c47.65,6.06,91.64,21.68,120.56,33.96l-0.02,0.05L837.17,346.33z"/>
	<path class="st0" d="M614.33,222.59l-0.07,0.04l0.02-0.05C614.33,222.59,614.33,222.59,614.33,222.59z"/>
	<path class="st4" d="M610.27,152.8l4,69.77l-0.02,0.05c-16.86-1.6-33.95-2-51.01-1.11c-25.51,1.34-50.16,5.54-67.75,15l-0.04-0.07
		l39.13-89.86c0,0,30.47-15.35,75.13-3.43L610.27,152.8z"/>
	<g>
		<path class="st4" d="M567.69,1064.75c-27.85,0-67.79-5.47-124.85-22.12c-161.61-47.15-159.18-96.13-158.99-98.19l134.74-586.09
			c-9-8-7.64-18.44-5.51-23.08c0.59-1.28,1.94-2.03,3.33-1.93c71.89,6.55,218.35,45.89,219.82,46.29
			c1.58,0.5,146.27,46.11,210.34,79.23c1.25,0.64,1.96,2.01,1.78,3.4c-0.67,5.06-5.1,14.62-17.01,16.52l-201.46,566.15
			C629.15,1046.39,618.74,1064.75,567.69,1064.75z M290.42,945.48c0.05,0-0.43,45.6,154.29,90.75
			c154.86,45.19,178.87,6.39,179.1,5.99l201.95-567.63c0.44-1.24,1.58-2.11,2.9-2.21c8.29-0.61,11.38-5.73,12.5-8.8
			c-64.7-32.76-205.36-77.1-206.79-77.55c-1.32-0.35-143.7-38.59-215.91-45.79c-0.69,3.19-0.81,9.18,5.85,14.16
			c1.06,0.79,1.55,2.13,1.25,3.42L290.42,945.48L290.42,945.48z"/>
	</g>
	<g>
		<path class="st4" d="M889.7,264.3c-0.54,0-1.1-0.14-1.6-0.41c-0.13-0.07-13.41-7.34-34.65-16.34c-0.19-0.08-0.37-0.18-0.53-0.28
			c-28.41-12.02-71.96-27.49-119.13-33.49C688.8,208,649.05,212,615.65,225.69c-0.64,0.26-1.35,0.31-2.03,0.16
			c-1.23-0.46-2.6-1.77-2.67-3.09l-4-69.77c-0.05-0.9,0.26-1.78,0.87-2.44c0.61-0.66,1.46-1.06,2.36-1.08
			c34.05-0.93,156.49,1.77,304.18,77.02c0.87,0.44,1.51,1.25,1.73,2.2c0.23,0.95,0.02,1.95-0.56,2.74l-23.14,31.51
			C891.74,263.82,890.73,264.3,889.7,264.3z M856.59,241.64c15.84,6.73,27.27,12.5,32.13,15.02l19.11-26.01
			c-140.12-70.48-256.48-75.09-294.02-74.6l3.54,61.79c33.58-12.79,73-16.39,117.28-10.68c48.22,6.13,92.65,21.98,121.43,34.2
			C856.25,241.44,856.42,241.53,856.59,241.64z"/>
	</g>
	<g>
		<path class="st4" d="M845.04,465.16c-0.53,0-1.05-0.12-1.53-0.37c-63.57-32.86-207.7-78.3-209.15-78.76
			c-1.33-0.35-147.24-39.55-218.56-46.04c-0.99-0.09-1.89-0.62-2.45-1.45c-0.56-0.82-0.73-1.86-0.45-2.81l26.51-90.87
			c0.28-0.98,1-1.77,1.93-2.15c0.45-0.18,11.33-4.48,43.71-2.51c30.32,1.83,86.33,9.81,181,37.44
			c94.68,27.62,146.19,51.01,172.73,65.77l0,0c28.36,15.76,35.22,25.23,35.49,25.63c0.58,0.83,0.76,1.88,0.47,2.85l-26.51,90.87
			c-0.28,0.96-0.97,1.74-1.89,2.14C845.93,465.07,845.49,465.16,845.04,465.16z M420.43,333.73c73.18,7.59,214.35,45.51,215.79,45.9
			c1.55,0.48,141.01,44.44,206.74,77.39l24.88-85.27c-2.63-2.8-11.15-10.76-32.29-22.5c0,0,0,0,0-0.01
			c-26.24-14.59-77.28-37.75-171.36-65.2c-94.08-27.45-149.56-35.38-179.54-37.19c-24.11-1.47-35.57,0.65-39.33,1.61L420.43,333.73z
			"/>
	</g>
	<g>
		<path class="st4" d="M837.17,349.66c-0.56,0-1.11-0.14-1.62-0.42c-26.24-14.59-77.28-37.75-171.36-65.2
			c-94.08-27.45-149.56-35.38-179.54-37.19c-1.36-0.08-2.54-0.99-2.97-2.29c-0.43-1.3-0.02-2.73,1.03-3.6
			c3.38-2.82,7.17-5.32,11.26-7.41c16.03-8.63,39.3-13.81,69.1-15.36c16.92-0.89,34.11-0.52,51.09,1.08c0.32,0,0.63,0,0.93,0.08
			c34.48,3.3,68.53,11.82,100.81,25.24c24.36,10.12,47.56,23,68.96,38.26l0,0c30.63,21.89,49.3,42.91,55.48,62.48
			c0.41,1.3-0.01,2.72-1.07,3.59C838.67,349.41,837.92,349.66,837.17,349.66z M494.43,240.9c31.97,2.83,85.98,11.74,171.62,36.73
			c85.72,25.01,136.05,46.55,164.51,61.36c-7.96-15.84-24.59-32.86-49.58-50.71c-20.99-14.98-43.75-27.6-67.64-37.53
			c-31.57-13.13-64.85-21.47-98.94-24.79c-0.17-0.01-0.32,0.01-0.47-0.01c-16.8-1.61-33.79-1.97-50.52-1.1
			c-28.81,1.51-51.13,6.42-66.34,14.61C496.18,239.92,495.3,240.4,494.43,240.9z"/>
	</g>
	<g>
		<path class="st4" d="M837.17,349.66c-1.44,0-2.74-0.94-3.18-2.33c-5.74-18.16-23.57-38.03-53-59.05
			c-20.99-14.98-43.75-27.6-67.64-37.53c-0.87-0.36-1.54-1.07-1.86-1.95c-0.32-0.89-0.25-1.86,0.19-2.68l19.57-37.19
			c0.64-1.23,1.98-1.95,3.37-1.76c48.23,6.13,92.66,21.98,121.44,34.2c1.58,0.67,2.39,2.42,1.88,4.07l-17.48,101.47
			c-0.26,1.52-1.52,2.66-3.06,2.76C837.32,349.66,837.25,349.66,837.17,349.66z M719.27,246c23.13,9.9,45.18,22.28,65.6,36.84
			c25.12,17.95,42.2,35.32,50.94,51.78l15.21-88.16c-27.96-11.69-69.69-26.33-114.94-32.39L719.27,246z"/>
	</g>
	<g>
		<path class="st4" d="M714.63,251c-0.43,0-0.86-0.08-1.28-0.25c-31.67-13.17-65.08-21.52-99.28-24.82
			c-1.53-0.15-2.76-1.32-2.98-2.83c-0.22-1.52,0.62-2.99,2.04-3.58c34.47-14.14,75.36-18.31,121.51-12.35
			c1.08,0.14,2.03,0.8,2.53,1.77c0.5,0.97,0.5,2.12-0.01,3.09l-19.57,37.19C716.98,250.34,715.83,251,714.63,251z M628.74,220.92
			c28.96,3.97,57.26,11.52,84.35,22.5l15.91-30.22C691.68,208.93,658.03,211.53,628.74,220.92z"/>
	</g>
	<g>
		<path class="st4" d="M614.26,225.96c-0.73,0-1.45-0.23-2.05-0.7c-1.07-0.83-1.53-2.22-1.17-3.52c0.25-0.9,0.88-1.69,1.71-2.11
			c0.83-0.42,1.82-0.5,2.69-0.18c1.21,0.45,2.07,1.58,2.18,2.86c0.1,1.29-0.52,2.53-1.65,3.18l-0.07,0.04
			C615.4,225.82,614.83,225.96,614.26,225.96z"/>
	</g>
	<g>
		<path class="st4" d="M495.5,239.85c-1.14,0-2.24-0.58-2.86-1.62c-0.55-0.92-0.67-2.12-0.24-3.11l39.13-89.86
			c0.31-0.72,0.86-1.3,1.56-1.65c1.29-0.65,32.13-15.8,77.49-3.68c1.39,0.37,2.39,1.6,2.47,3.03l0.56,9.64c0,0.01,0,0.01,0,0.01
			l4,69.77c0.02,0.36-0.02,0.73-0.11,1.08c-0.44,1.56-1.97,2.57-3.55,2.49c-16.8-1.61-33.79-1.97-50.52-1.1
			c-28.81,1.51-51.13,6.42-66.34,14.61C496.58,239.72,496.04,239.85,495.5,239.85z M537.14,149.1l-35.13,80.67
			c15.45-6.37,35.94-10.26,61.06-11.58c15.78-0.84,31.79-0.57,47.66,0.77l-4.2-73.18C569.46,136.59,542.66,146.72,537.14,149.1z"/>
	</g>
	<g>
		<path class="st4" d="M434.25,277.83c-1.12,0-2.22-0.57-2.85-1.6c-0.96-1.57-0.47-3.62,1.1-4.59l50.6-30.97
			c1.56-0.96,3.63-0.46,4.58,1.11c0.96,1.57,0.47,3.62-1.1,4.59l-50.6,30.97C435.44,277.67,434.84,277.83,434.25,277.83z"/>
	</g>
	<g>
		<path class="st4" d="M416.11,340c-1.07,0-2.12-0.51-2.76-1.46c-1.04-1.52-0.64-3.6,0.89-4.64l126.21-85.74
			c1.52-1.04,3.6-0.65,4.63,0.88c1.04,1.52,0.64,3.6-0.89,4.64l-126.21,85.74C417.4,339.81,416.75,340,416.11,340z"/>
	</g>
	<g>
		<path class="st4" d="M485.41,350.88c-1.06,0-2.1-0.5-2.75-1.44c-1.05-1.51-0.67-3.59,0.84-4.64l115.8-80.19
			c1.51-1.05,3.59-0.68,4.64,0.85c1.05,1.51,0.67,3.59-0.84,4.64l-115.8,80.19C486.73,350.69,486.07,350.88,485.41,350.88z"/>
	</g>
	<g>
		<path class="st4" d="M561.37,367.57c-0.98,0-1.94-0.42-2.6-1.24c-1.15-1.44-0.93-3.54,0.51-4.69l103.76-83.39
			c1.43-1.16,3.53-0.93,4.69,0.51c1.15,1.44,0.93,3.54-0.51,4.69l-103.76,83.39C562.83,367.33,562.1,367.57,561.37,367.57z"/>
	</g>
	<g>
		<path class="st4" d="M635.36,386.19c-0.96,0-1.92-0.42-2.58-1.22c-1.17-1.42-0.96-3.52,0.46-4.69l97.89-80.49
			c1.42-1.18,3.53-0.96,4.69,0.46c1.17,1.42,0.96,3.52-0.46,4.69l-97.89,80.49C636.86,385.94,636.1,386.19,635.36,386.19z"/>
	</g>
	<g>
		<path class="st4" d="M706.11,409.71c-0.99,0-1.96-0.44-2.62-1.26c-1.14-1.45-0.9-3.54,0.55-4.69l97.14-76.81
			c1.45-1.13,3.55-0.89,4.68,0.55c1.14,1.45,0.9,3.54-0.55,4.69l-97.14,76.81C707.56,409.48,706.83,409.71,706.11,409.71z"/>
	</g>
	<g>
		<path class="st4" d="M765.07,431.02c-1.03,0-2.05-0.48-2.7-1.37c-1.08-1.49-0.75-3.58,0.74-4.66l93.63-67.92
			c1.49-1.09,3.58-0.76,4.66,0.74c1.08,1.49,0.75,3.58-0.74,4.66l-93.63,67.92C766.44,430.81,765.75,431.02,765.07,431.02z"/>
	</g>
	<g>
		<path class="st4" d="M889.95,253.37c-0.56,0-1.12-0.14-1.64-0.44c-79.73-45.34-177.22-61.85-267.42-45.3
			c-1.82,0.29-3.55-0.87-3.88-2.68c-0.33-1.81,0.87-3.55,2.68-3.88c91.74-16.81,190.85-0.03,271.92,46.07
			c1.6,0.91,2.16,2.94,1.25,4.55C892.23,252.77,891.11,253.37,889.95,253.37z"/>
	</g>
	<g>
		<path class="st4" d="M335.41,918.1c-0.27,0-0.55-0.03-0.82-0.1c-1.79-0.45-2.87-2.27-2.41-4.05l59.25-233.22
			c0.45-1.79,2.29-2.88,4.05-2.41c1.79,0.45,2.87,2.27,2.41,4.05l-59.25,233.22C338.26,917.09,336.9,918.1,335.41,918.1z"/>
	</g>
	<g>
		<path class="st4" d="M612.13,958.44c-0.38,0-0.77-0.07-1.14-0.2c-1.73-0.63-2.63-2.54-1.99-4.27l154.54-424.42
			c0.63-1.73,2.55-2.61,4.27-1.99c1.73,0.63,2.63,2.54,1.99,4.27L615.27,956.24C614.77,957.6,613.49,958.44,612.13,958.44z"/>
	</g>
	<g>
		<path class="st4" d="M538.32,1045.3c-0.15,0-0.29-0.01-0.44-0.03c-65.88-8.78-129.87-27.42-190.19-55.41
			c-1.67-0.78-2.4-2.76-1.62-4.42c0.78-1.67,2.75-2.41,4.43-1.62c59.71,27.7,123.04,46.15,188.26,54.84
			c1.83,0.25,3.11,1.92,2.87,3.75C541.4,1044.08,539.97,1045.3,538.32,1045.3z"/>
	</g>
	<g>
		<path class="st0" d="M384.66,937.89l8.89-30.48c3.68-12.62,8.99-21.67,15.93-27.17c6.94-5.49,14.83-6.94,23.68-4.36
			c5.57,1.63,9.95,4.75,13.14,9.37c3.19,4.62,5.05,10.19,5.59,16.71c0.55,6.52-0.22,13.34-2.3,20.47l-1.51,5.16l28.89,8.43
			l-7.75,26.55L384.66,937.89z M432.79,906.45c-1.11-2.9-3.39-4.86-6.83-5.86c-3.44-1-6.36-0.59-8.77,1.24
			c-2.4,1.83-4.25,4.96-5.54,9.39l-1.54,5.29l20.65,6.03c0.64-1.59,1.24-3.33,1.79-5.21C433.82,912.98,433.9,909.35,432.79,906.45z"
			/>
		<path class="st0" d="M483.53,841.36l-13.56-0.62l-1.69,5.78l32.08,9.36l-7.85,26.92l-84.57-24.68l10.87-37.25
			c2.06-7.05,4.91-12.95,8.57-17.71c3.66-4.76,7.8-8.06,12.43-9.91c4.63-1.85,9.4-2.06,14.32-0.62c5.49,1.6,9.71,4.28,12.66,8.03
			c2.95,3.75,4.8,8.76,5.55,15.03c3.28,0.34,6.3,0.5,9.06,0.51c3.4-0.07,5.97-0.79,7.7-2.16c1.73-1.36,3.07-3.68,4.03-6.96
			c0.33-1.15,0.7-3,1.09-5.55l20.04,5.85c0.35,4.28-0.01,8.27-1.09,11.95C508.67,834.73,498.79,842.08,483.53,841.36z
			 M452.44,836.82c1.77-6.06,2.34-10.54,1.72-13.44c-0.62-2.89-2.57-4.82-5.85-5.78c-2.79-0.81-5.11-0.38-6.98,1.3
			c-1.87,1.68-3.45,4.73-4.74,9.15l-2.47,8.48l16.96,4.95L452.44,836.82z"/>
		<path class="st0" d="M518.79,779.02c-5.76,5.74-12.54,9.54-20.34,11.41c-7.79,1.86-15.95,1.55-24.47-0.94
			c-8.6-2.51-15.71-6.65-21.32-12.42c-5.61-5.77-9.28-12.62-11.01-20.55c-1.73-7.93-1.31-16.32,1.28-25.17
			c2.58-8.85,6.74-16.15,12.46-21.91c5.73-5.75,12.48-9.56,20.27-11.42c7.79-1.86,16.03-1.53,24.72,1.01
			c8.52,2.49,15.57,6.61,21.13,12.37c5.57,5.76,9.23,12.63,10.99,20.61c1.76,7.98,1.36,16.36-1.2,25.13
			C528.73,765.98,524.56,773.27,518.79,779.02z M506.63,736.12c-3.05-4.49-7.85-7.69-14.41-9.61c-4.34-1.27-8.44-1.64-12.28-1.11
			c-3.84,0.52-7.12,1.86-9.84,4c-2.71,2.14-4.57,4.94-5.58,8.38c-0.98,3.36-0.9,6.67,0.23,9.94c1.14,3.27,3.19,6.13,6.16,8.6
			c2.97,2.47,6.63,4.33,10.97,5.6c6.56,1.91,12.32,1.82,17.29-0.29c4.97-2.1,8.22-5.78,9.75-11.03
			C510.45,745.43,509.68,740.61,506.63,736.12z"/>
		<path class="st0" d="M483.22,669.6l-5.13,17.58l-18.68-5.45l18.62-63.8l18.68,5.45l-5.13,17.58l65.89,19.22l-8.36,28.64
			L483.22,669.6z"/>
		<path class="st0" d="M481.4,606.37L498.72,547l18.68,5.45l-8.61,29.5l15.37,4.48l7.85-26.92l15.49,4.52l-7.85,26.92l16.35,4.77
			l8.61-29.5l18.68,5.45l-17.32,59.37L481.4,606.37z"/>
		<path class="st0" d="M502.74,533.23l8.29-28.39l84.57,24.68l-8.29,28.4L502.74,533.23z"/>
		<path class="st0" d="M515.69,488.86l7.21-24.71l55.43-20.37l-45.6-13.31l6.42-22l84.57,24.68l-7.17,24.59l-53.91,21.09
			l44.01,12.84l-6.38,21.88L515.69,488.86z"/>
	</g>
</g>
</svg>
