<?xml version="1.0" encoding="utf-8"?>
<!-- Generator: Adobe Illustrator 26.2.1, SVG Export Plug-In . SVG Version: 6.00 Build 0)  -->
<svg version="1.1" id="Layer_1" xmlns="http://www.w3.org/2000/svg" xmlns:xlink="http://www.w3.org/1999/xlink" x="0px" y="0px"
	 viewBox="0 0 1200 1200" style="enable-background:new 0 0 1200 1200;" xml:space="preserve">
<style type="text/css">
	.st0{fill:#FFFFFF;}
	.st1{fill:#EDEDD3;}
	.st2{fill:#BCD167;}
	.st3{fill:#E6EBB7;}
	.st4{fill:#154D72;}
	.st5{fill:#9FB32A;}
	.st6{fill:none;}
</style>
<g>
	<path class="st0" d="M864.1,637.03L700.75,959.97c-13.08,25.85-38.83,42.98-67.74,44.98l-3.95,0.32c0,0-27.7,4.78-183.32-73.94
		C290.12,852.61,277.62,827.5,277.62,827.5l-2.14-3.4c-14.43-22.68-16.67-50.95-6.47-75.56C461.15,916,603.92,917.87,603.92,917.87
		l169.86-335.81c-202.83-78.47-321.29-179.29-324.89-181.8c3.97-4.18,8.3-7.86,13.04-11.11c11.24-7.69,24.4-12.63,38.41-14.04
		c28-2.77,52.69-19.65,65.4-44.77l0.65-1.29c0,0,29.95,22.26,143.65,79.77c113.7,57.51,149.44,68.48,149.44,68.48l-0.65,1.29
		c-12.7,25.12-11.73,54.99,2.69,79.21c7.16,12.13,10.99,25.66,11.45,39.27C873.39,610.73,870.45,624.47,864.1,637.03z"/>
	<path class="st2" d="M936.95,357.14l-46.74,92.4c0,0-2.66,0.51-14.98-3.4c-18.92-6.01-60.46-22.62-149.78-67.8
		c-89.32-45.18-127.28-68.87-143.3-80.45c-10.45-7.61-11.62-10.05-11.62-10.05l46.74-92.4c-3.02,5.97,66.05,47.02,154.33,91.67
		C859.87,331.76,933.93,363.11,936.95,357.14z"/>
	<path class="st0" d="M936.95,357.14c-3.02,5.97-77.07-25.38-165.35-70.03c-88.28-44.65-157.35-85.7-154.33-91.67
		c3.02-5.97,77.01,25.35,165.29,70C870.84,310.09,939.97,351.17,936.95,357.14z"/>
	<path class="st2" d="M773.78,582.06L597.69,930.18c0,0-161.46-35.8-328.68-181.64c0.75-1.94,1.62-3.82,2.56-5.66l163.35-322.94
		c3.71-7.33,8.43-13.91,13.97-19.68C452.49,402.77,570.95,503.58,773.78,582.06z"/>
	<path class="st0" d="M725.45,378.34c89.32,45.18,130.86,61.79,149.78,67.8l-8.25,16.31c0,0-50.55-16.99-150.03-67.31
		C617.53,344.86,573.9,314.2,573.9,314.2l8.25-16.31C598.17,309.47,636.13,333.16,725.45,378.34z"/>
	<path class="st0" d="M716.95,395.15c99.48,50.32,150.03,67.31,150.03,67.31s6.24,12.12-7.5,14.84c0,0-35.74-10.96-149.44-68.48
		c-113.7-57.51-143.65-79.77-143.65-79.77c-5.96-12.68,7.5-14.84,7.5-14.84S617.53,344.86,716.95,395.15z"/>
	<g>
		<path class="st4" d="M627.64,1009.48c-8.27,0-46.75-5.17-183.76-74.48C291.44,857.9,275.27,832.03,273.93,829.33l-1.94-3.04
			c-15.04-23.64-17.58-53.31-6.79-79.33l180.03-348.6c0.18-0.35,0.41-0.67,0.68-0.95c4.14-4.34,8.74-8.27,13.7-11.66
			c11.96-8.19,25.91-13.29,40.33-14.74c26.78-2.65,50-18.55,62.14-42.53l0.65-1.29c0.55-1.09,1.55-1.88,2.73-2.16
			c1.21-0.27,2.44-0.02,3.41,0.7c0.3,0.22,31.26,22.85,143.05,79.4c111.79,56.55,148.43,68.1,148.78,68.22
			c1.17,0.35,2.11,1.21,2.58,2.33c0.48,1.13,0.43,2.4-0.12,3.48l-0.66,1.3c-12.14,24.01-11.19,52.13,2.56,75.23
			c7.38,12.48,11.53,26.74,12.03,41.23c0.45,14.54-2.76,29.05-9.3,41.98l0,0L704.43,961.83c-13.68,27.06-40.94,45.15-71.14,47.23
			l-3.9,0.31C629.13,1009.42,628.58,1009.48,627.64,1009.48z M452.28,402.68L272.67,750.43c-9.62,23.22-7.32,50.06,6.28,71.44
			l2.15,3.42c0.74,1.27,16.77,26.61,166.5,102.34c149.76,75.75,179.61,73.65,180.9,73.54l4.17-0.35
			c27.36-1.88,52.02-18.26,64.4-42.73l163.35-322.94c5.92-11.7,8.83-24.84,8.42-37.99c-0.45-13.11-4.21-26.02-10.88-37.3
			c-14.62-24.58-16.15-54.33-4.24-80.21c-12.68-4.57-53.51-20.63-145.53-67.18c-92.01-46.55-129.1-69.89-140.29-77.4
			c-13.79,24.89-38.65,41.29-67.14,44.11c-13.05,1.31-25.66,5.93-36.49,13.34C459.94,395.51,455.91,398.91,452.28,402.68z
			 M864.1,637.03h0.08H864.1z"/>
	</g>
	<g>
		<path class="st4" d="M889.83,453.68c-2.89,0-8.42-1.26-15.85-3.62c-19.45-6.18-61.33-23-150.39-68.05
			c-88.37-44.7-127.01-68.61-143.86-80.79c-7.3-5.32-11.88-9.44-12.92-11.62c-0.55-1.15-0.54-2.5,0.04-3.63l46.7-92.32
			c0.02-0.02,0.02-0.06,0.04-0.08c1.02-2.04,3.51-2.84,5.54-1.82c1.41,0.72,2.23,2.13,2.26,3.6c5.39,7.5,59.89,41.44,152.06,88.07
			c92.02,46.55,151.62,70.35,161.06,70.35c0.02,0,0.04-0.01,0.06-0.01c1.21-0.84,2.84-1,4.24-0.31c2.03,1.03,2.85,3.51,1.82,5.54
			l0,0c0,0.01-0.01,0.01-0.01,0.02l-46.73,92.38c-0.58,1.14-1.65,1.95-2.91,2.19C890.66,453.65,890.28,453.68,889.83,453.68z
			 M575.45,287.25c1.35,1.27,4.05,3.62,9.12,7.31c16.6,12,54.85,35.64,142.74,80.1c88.57,44.81,130,61.46,149.16,67.55
			c5.91,1.88,9.39,2.67,11.31,3l42.37-83.77c-7.52-1.53-20.94-6.12-45.52-16.53c-31.34-13.27-72.15-32.49-114.9-54.12
			c-42.75-21.62-82.4-43.1-111.64-60.48c-22.93-13.63-34.57-21.7-40.26-26.85L575.45,287.25z M933.27,355.27
			c0,0.01-0.01,0.01-0.01,0.02C933.27,355.28,933.27,355.28,933.27,355.27z M620.95,197.3L620.95,197.3
			c0.01-0.01,0.01-0.02,0.02-0.03C620.96,197.28,620.96,197.3,620.95,197.3L620.95,197.3z"/>
	</g>
	<g>
		<path class="st4" d="M935.31,362.07c-5.87,0-19-3.74-50.68-17.16c-31.34-13.27-72.15-32.49-114.9-54.12
			c-42.75-21.62-82.4-43.1-111.64-60.48c-48.5-28.81-46.47-32.84-44.5-36.73c1.97-3.89,3.99-7.93,55.96,14.08
			c31.32,13.26,72.11,32.48,114.87,54.1c42.76,21.63,82.42,43.12,111.68,60.49c48.53,28.83,46.5,32.86,44.53,36.75l0,0
			C939.85,360.53,939.07,362.07,935.31,362.07z M936.95,357.14h0.08H936.95z M626.85,200.28c16.63,12.75,67.88,43.32,146.61,83.15
			c78.76,39.84,133.77,63.01,153.91,68.87c-16.64-12.75-67.9-43.34-146.67-83.18C701.96,229.29,646.97,206.13,626.85,200.28z"/>
	</g>
	<g>
		<path class="st4" d="M866.98,466.58c-0.43,0-0.88-0.07-1.31-0.22c-0.51-0.17-51.98-17.65-150.58-67.53
			c-98.54-49.85-143.12-80.94-143.56-81.25c-1.68-1.18-2.23-3.41-1.31-5.23l8.25-16.32c0.54-1.08,1.53-1.86,2.71-2.15
			c1.16-0.27,2.41-0.05,3.39,0.67c16.61,12.01,54.86,35.65,142.75,80.11c88.57,44.81,130,61.46,149.16,67.55
			c1.15,0.36,2.09,1.22,2.55,2.34c0.47,1.11,0.43,2.38-0.12,3.45l-8.25,16.32C869.95,465.73,868.51,466.58,866.98,466.58z
			 M579.21,312.83c11.35,7.58,55.8,36.25,139.6,78.64c83.85,42.42,133.3,61.24,146.13,65.89l4.45-8.8
			c-21.18-7.25-63.19-24.75-145.8-66.53c-82.08-41.52-121.26-65.1-139.92-78.01L579.21,312.83z"/>
	</g>
	<g>
		<path class="st4" d="M859.48,481.41c-0.41,0-0.81-0.06-1.21-0.18c-1.47-0.46-37.37-11.72-150.09-68.74
			c-112.72-57.02-143.01-79.22-144.25-80.14c-0.54-0.4-0.98-0.94-1.27-1.55c-2.95-6.27-1.93-10.68-0.56-13.28
			c3.14-5.94,10.33-7.25,11.14-7.38c1.07-0.15,2.14,0.09,3.02,0.7c0.43,0.31,44.63,31.1,142.54,80.63
			c97.98,49.57,148.99,66.91,149.49,67.08c1.01,0.34,1.86,1.06,2.35,2.02c0.38,0.72,3.58,7.29,0.65,13.34
			c-1.28,2.64-4.23,6.08-11.02,7.42C860.01,481.38,859.74,481.41,859.48,481.41z M569.72,326.34c5.67,3.96,40.46,27.34,142.19,78.79
			c101.72,51.46,141.22,65.65,147.78,67.88c2.19-0.57,3.59-1.47,4.19-2.67c0.68-1.38,0.38-3.27-0.03-4.61
			c-9.97-3.55-60.47-22.24-148.74-66.9l0,0c-88.23-44.64-133.2-74.22-141.96-80.15c-1.32,0.47-3.03,1.34-3.74,2.71
			C568.77,322.58,568.88,324.24,569.72,326.34z"/>
	</g>
	<g>
		<path class="st4" d="M837.83,555.5c-0.35,0-0.71-0.05-1.06-0.14c-112.28-29.95-219.44-84.35-309.89-157.3
			c-1.77-1.43-2.05-4.03-0.62-5.8c1.42-1.78,4.03-2.05,5.8-0.63c89.56,72.25,195.66,126.11,306.84,155.76
			c2.2,0.59,3.51,2.85,2.92,5.05C841.33,554.29,839.66,555.5,837.83,555.5z"/>
	</g>
	<g>
		<path class="st4" d="M675.86,955.87c-0.63,0-1.26-0.14-1.86-0.44c-2.03-1.03-2.85-3.51-1.82-5.54L810.3,676.83
			c1.02-2.04,3.5-2.84,5.54-1.82c2.03,1.03,2.85,3.51,1.82,5.54L679.54,953.6C678.81,955.04,677.36,955.87,675.86,955.87z"/>
	</g>
	<g>
		<path class="st4" d="M595.58,242.45c-1.69,0-3.28-1.05-3.88-2.73c-0.77-2.14,0.35-4.5,2.49-5.27l52.54-18.87
			c2.16-0.74,4.51,0.35,5.27,2.49c0.77,2.14-0.35,4.5-2.49,5.27l-52.54,18.87C596.52,242.37,596.05,242.45,595.58,242.45z"/>
	</g>
	<g>
		<path class="st4" d="M573.26,294.92c-1.7,0-3.29-1.06-3.89-2.75c-0.76-2.14,0.36-4.5,2.51-5.27l122.81-43.53
			c2.1-0.76,4.5,0.36,5.27,2.51c0.76,2.14-0.36,4.5-2.51,5.27l-122.81,43.53C574.19,294.85,573.72,294.92,573.26,294.92z"/>
	</g>
	<g>
		<path class="st4" d="M619.98,325.96c-1.64,0-3.2-0.99-3.83-2.61c-0.84-2.12,0.2-4.51,2.32-5.35l123.61-48.9
			c2.08-0.86,4.51,0.2,5.35,2.32c0.84,2.12-0.2,4.51-2.32,5.35l-123.61,48.9C621,325.88,620.49,325.96,619.98,325.96z"/>
	</g>
	<g>
		<path class="st4" d="M679.9,359.42c-1.61,0-3.13-0.95-3.8-2.52c-0.89-2.1,0.1-4.52,2.2-5.4l123.58-52.06
			c2.12-0.87,4.52,0.11,5.4,2.2c0.89,2.1-0.1,4.52-2.2,5.4L681.5,359.1C680.98,359.32,680.43,359.42,679.9,359.42z"/>
	</g>
	<g>
		<path class="st4" d="M743.65,391.67c-1.58,0-3.08-0.91-3.77-2.45c-0.93-2.08,0.01-4.52,2.09-5.44l123.14-54.9
			c2.05-0.93,4.52,0.01,5.44,2.09c0.93,2.08-0.01,4.52-2.09,5.44l-123.14,54.9C744.78,391.55,744.21,391.67,743.65,391.67z"/>
	</g>
	<g>
		<path class="st4" d="M801.65,419.66c-1.59,0-3.12-0.93-3.78-2.49c-0.9-2.09,0.06-4.52,2.15-5.42l135.3-58.39
			c2.08-0.92,4.53,0.06,5.42,2.15c0.9,2.09-0.06,4.52-2.15,5.42l-135.3,58.39C802.75,419.55,802.2,419.66,801.65,419.66z"/>
	</g>
	<g>
		<path class="st4" d="M860.05,444.89c-1.56,0-3.05-0.89-3.74-2.41c-0.95-2.07-0.04-4.52,2.03-5.46l43.91-20.12
			c2.05-0.97,4.5-0.06,5.46,2.03c0.95,2.07,0.04,4.52-2.03,5.46l-43.91,20.12C861.21,444.77,860.63,444.89,860.05,444.89z"/>
	</g>
</g>
</svg>
