<?xml version="1.0" encoding="utf-8"?>
<!-- Generator: Adobe Illustrator 26.2.1, SVG Export Plug-In . SVG Version: 6.00 Build 0)  -->
<svg version="1.1" id="Layer_1" xmlns="http://www.w3.org/2000/svg" xmlns:xlink="http://www.w3.org/1999/xlink" x="0px" y="0px"
	 viewBox="0 0 1200 1200" style="enable-background:new 0 0 1200 1200;" xml:space="preserve">
<style type="text/css">
	.st0{fill:#FFFFFF;}
	.st1{fill:#EDEDD3;}
	.st2{fill:#BCD167;}
	.st3{fill:#E6EBB7;}
	.st4{fill:#154D72;}
	.st5{fill:#9FB32A;}
	.st6{fill:none;}
</style>
<g>
	<path class="st0" d="M695.1,336.13c21.53-7.72,45.64,4.55,53.8,27.32l117.28,327.26c8.19,22.85-2.64,47.64-24.17,55.36
		L505.84,866.54c-21.44,7.68-45.55-4.58-53.74-27.44L334.82,511.85c-8.16-22.76,2.67-47.55,24.11-55.24L695.1,336.13z M737.27,440.2
		c-0.76-2.12-2.28-3.86-4.44-4.88c-3.6-1.7-7.9-0.65-10.35,2.51L619.01,573.88c-7.44-3.81-16.18-5.15-24.74-3.18l-0.09-0.26
		l-39.97-111.53c-1.58-4.41-6.49-6.73-10.91-5.15l-1.5,0.54c-4.41,1.58-6.64,6.46-5.06,10.88l40.95,114.26
		c-10.52,9.54-14.86,24.94-9.74,39.23c6.8,18.97,27.74,28.79,46.71,21.99c18.88-6.77,28.82-27.65,22.02-46.62
		c-1.45-4.06-3.55-7.69-6.14-10.74l105.43-135.06C737.82,445.88,738.19,442.76,737.27,440.2z"/>
	<path class="st4" d="M616.3,269.88l12.73,25.8l-244.67,87.69l-6.56-28.02l-14.39-61.26c8.67-7.19,20.25-14.62,32.63-21.75
		c47.42-27.15,99.48-45.81,153.35-54.96c14.09-2.36,27.75-3.97,39.02-3.93L616.3,269.88z"/>
	<path class="st4" d="M815.66,816.44l6.56,28.02l14.33,61.38c-10.48,8.54-24.99,17.52-40.22,25.86
		c-42.85,23.52-89.26,40.15-137.29,49.2c-17.06,3.23-33.97,5.5-47.49,5.57l-27.83-56.54l-12.73-25.8L815.66,816.44z"/>
	<path class="st3" d="M735.97,448.23L630.54,583.29c-3.11-3.96-7.13-7.1-11.54-9.41l103.48-136.05c2.45-3.17,6.75-4.21,10.35-2.51
		c2.16,1.02,3.68,2.76,4.44,4.88C738.19,442.76,737.82,445.88,735.97,448.23z"/>
	<path class="st3" d="M636.68,594.03c6.8,18.97-3.14,39.86-22.02,46.62c-18.97,6.8-39.91-3.02-46.71-21.99
		c-5.12-14.29-0.78-29.69,9.74-39.23c3.43-3.22,7.58-5.8,12.34-7.51c1.41-0.51,2.77-0.89,4.24-1.22c8.55-1.97,17.3-0.62,24.74,3.18
		c4.41,2.3,8.42,5.44,11.54,9.41C633.13,586.35,635.23,589.97,636.68,594.03z"/>
	<path class="st3" d="M594.18,570.44l0.09,0.26c-1.47,0.33-2.83,0.72-4.24,1.22c-4.76,1.71-8.92,4.29-12.34,7.51l-40.95-114.26
		c-1.58-4.41,0.65-9.29,5.06-10.88l1.5-0.54c4.41-1.58,9.33,0.74,10.91,5.15L594.18,570.44z"/>
	<path class="st4" d="M748.9,363.45c-8.16-22.76-32.27-35.03-53.8-27.32L358.93,456.61c-21.44,7.68-32.27,32.47-24.11,55.24
		L452.1,839.11c8.19,22.85,32.3,35.12,53.74,27.44l336.17-120.48c21.53-7.72,32.36-32.51,24.17-55.36L748.9,363.45z M878.23,703.21
		c1.25,22.65-11.62,43.99-33.06,51.67L509,875.37c-21.35,7.65-44.84-0.66-58.27-18.95c-3-4.2-5.6-8.95-7.46-14.15L325.99,515.01
		c-9.9-27.62,3.48-57.8,29.77-67.22l336.17-120.48c26.38-9.45,55.89,5.36,65.78,32.98l117.28,327.26
		C876.87,692.75,877.88,698.06,878.23,703.21z"/>
	<path class="st2" d="M845.17,754.89c21.44-7.68,34.3-29.02,33.06-51.67l18.79-5.64c0.95,19.87-4.48,39.74-15.84,56.65l-19.58,28.72
		c-4.68,6.95-6.09,15.52-3.95,23.42c6.2,22.87-0.5,25.57-0.5,25.57l-34.94,12.52l-6.56-28.02l-244.67,87.69l12.73,25.8l-35.03,12.55
		c0,0-6.8,2.14-16.62-19.43c-3.37-7.46-9.9-13.18-17.84-15.61l-33.36-9.75c-19.52-5.85-36.33-17.75-48.22-33.7l18.09-7.58
		c13.42,18.29,36.91,26.6,58.27,18.95L845.17,754.89z"/>
	<path class="st2" d="M757.72,360.29c-9.9-27.62-39.4-42.43-65.78-32.98L355.77,447.78c-26.29,9.42-39.67,39.61-29.77,67.22
		l117.28,327.26c1.87,5.21,4.46,9.95,7.46,14.15L432.65,864c-5.38-7.23-9.77-15.32-12.9-24.05L308.31,529.01
		c-9.99-27.88-6.06-58.86,10.56-83.34l19.55-28.81c4.62-6.83,6.03-15.4,3.86-23.39c-6.12-22.9,0.5-25.57,0.5-25.57l35.03-12.55
		l6.56,28.02l244.67-87.69l-12.73-25.8l34.94-12.52c0,0,6.89-2.17,16.62,19.43c3.4,7.54,9.93,13.27,17.93,15.58l33.4,9.84
		c28.38,8.35,51.1,29.78,61.09,57.66l111.43,310.94c3.13,8.73,4.87,17.77,5.31,26.77l-18.79,5.64c-0.35-5.15-1.36-10.46-3.23-15.67
		L757.72,360.29z"/>
	<g>
		<path class="st4" d="M384.34,389.01c-0.92,0-1.85-0.23-2.68-0.68c-1.4-0.76-2.41-2.09-2.77-3.64l-20.94-89.27
			c-0.49-2.07,0.24-4.24,1.88-5.6c8.15-6.75,19.08-14.04,33.41-22.29c48.22-27.6,100.43-46.32,155.21-55.62
			c16.36-2.73,29.27-4.05,39.98-4c2.12,0.01,4.06,1.21,5,3.12l40.61,82.23c0.71,1.43,0.77,3.1,0.17,4.58
			c-0.6,1.48-1.8,2.63-3.3,3.17l-244.67,87.69C385.61,388.9,384.98,389.01,384.34,389.01z M369.66,296.29l18.71,79.73l232.84-83.45
			l-36.28-73.43c-9.27,0.23-20.89,1.52-34.63,3.81c-53.46,9.08-104.43,27.35-151.49,54.3C386.77,284.17,376.99,290.57,369.66,296.29
			z"/>
	</g>
	<g>
		<path class="st4" d="M611.53,992.11c-2.13,0-4.08-1.21-5.03-3.13l-40.56-82.33c-0.71-1.43-0.77-3.11-0.17-4.58
			c0.6-1.48,1.8-2.63,3.3-3.17l244.67-87.69c1.5-0.54,3.17-0.41,4.56,0.36c1.41,0.76,2.42,2.08,2.78,3.64l20.89,89.4
			c0.49,2.08-0.26,4.26-1.91,5.61c-9.8,7.98-23.61,16.87-41.06,26.43c-43.46,23.86-90.22,40.61-138.95,49.79
			c-19.55,3.7-35.87,5.6-48.5,5.67C611.55,992.11,611.54,992.11,611.53,992.11z M578.77,907.31l36.22,73.52
			c11.44-0.35,25.88-2.17,42.99-5.4c47.57-8.96,93.21-25.32,135.64-48.61c15.27-8.37,27.58-16.14,36.65-23.14l-18.64-79.82
			L578.77,907.31z"/>
	</g>
	<g>
		<path class="st4" d="M630.53,588.93c-1.72,0-3.34-0.79-4.4-2.14c-2.5-3.18-5.77-5.84-9.73-7.9c-1.46-0.77-2.52-2.13-2.87-3.75
			c-0.36-1.61,0.01-3.3,1.01-4.61l103.48-136.05c4.05-5.25,11.27-6.99,17.21-4.18c3.43,1.62,6.03,4.48,7.31,8.05l0,0
			c1.61,4.49,0.78,9.62-2.17,13.38L634.94,586.77c-1.06,1.36-2.69,2.15-4.4,2.16C630.53,588.93,630.53,588.93,630.53,588.93z
			 M627.17,572.41c1.02,0.74,2,1.53,2.93,2.35l101.44-129.95c0.67-0.86,0.71-1.97,0.44-2.69c-0.28-0.78-0.8-1.35-1.55-1.71
			c-1.23-0.58-2.69-0.22-3.52,0.87L627.17,572.41z"/>
	</g>
	<g>
		<path class="st4" d="M602.27,648.46c-6.13,0-12.23-1.35-17.93-4.03c-10.19-4.79-17.89-13.26-21.68-23.84
			c-5.76-16.08-1.35-33.85,11.25-45.27c4.01-3.77,8.82-6.7,14.22-8.63c1.62-0.59,3.2-1.03,4.92-1.42c9.46-2.19,19.61-0.9,28.5,3.67
			c5.41,2.82,9.9,6.49,13.39,10.93c2.94,3.47,5.35,7.67,7.01,12.33c3.79,10.57,3.23,21.99-1.59,32.16
			c-4.81,10.16-13.26,17.83-23.81,21.61C611.88,647.63,607.07,648.46,602.27,648.46z M602.22,575.43c-2.25,0-4.5,0.25-6.7,0.76
			c-1.28,0.28-2.42,0.6-3.61,1.03c-3.95,1.42-7.45,3.55-10.4,6.32c-9.3,8.44-12.53,21.46-8.3,33.26
			c5.74,16.02,23.49,24.34,39.55,18.61c7.74-2.77,13.94-8.4,17.47-15.86c3.53-7.46,3.95-15.84,1.17-23.59c0-0.01,0-0.01,0-0.01
			c-1.21-3.38-2.94-6.41-5.14-9c-2.63-3.34-5.9-6-9.86-8.06C611.95,576.61,607.07,575.43,602.22,575.43z"/>
	</g>
	<g>
		<path class="st4" d="M577.67,585.07c-0.44,0-0.88-0.05-1.31-0.15c-1.84-0.44-3.33-1.78-3.97-3.56l-40.95-114.26
			c-2.63-7.33,1.17-15.42,8.45-18.04l1.5-0.54c7.32-2.63,15.44,1.19,18.07,8.53c0,0,0,0,0,0.01l40.07,111.8
			c0.54,1.51,0.41,3.18-0.37,4.6c-0.78,1.41-2.12,2.41-3.69,2.76c-1.24,0.27-2.37,0.59-3.56,1.02c-3.95,1.42-7.45,3.55-10.4,6.32
			C580.46,584.54,579.08,585.07,577.67,585.07z M546.13,458.9c-0.32,0-0.65,0.05-0.96,0.16l-1.5,0.54
			c-1.47,0.53-2.22,2.19-1.68,3.71l38.38,107.08c2.09-1.29,4.31-2.38,6.64-3.29l-38.09-106.27
			C548.49,459.65,547.34,458.9,546.13,458.9z"/>
	</g>
	<g>
		<path class="st4" d="M548.04,948.18c-4.55,0-12.31-3.5-21.09-22.77c-2.72-6.04-7.97-10.61-14.38-12.57l-33.29-9.74
			c-20.66-6.19-38.33-18.53-51.14-35.72c-5.82-7.82-10.42-16.4-13.68-25.51L303.02,530.93c-10.56-29.46-6.37-62.5,11.2-88.37
			l19.55-28.81c3.71-5.49,4.84-12.34,3.09-18.78c-6.68-25.01,0.44-30.86,3.81-32.23l35.23-12.63c1.52-0.53,3.17-0.41,4.57,0.36
			c1.4,0.76,2.41,2.09,2.77,3.64l5.13,21.9l232.84-83.45l-9.95-20.17c-0.71-1.43-0.77-3.1-0.17-4.58c0.6-1.48,1.8-2.63,3.3-3.17
			l34.94-12.52c3.7-1.17,12.98-1.18,23.62,22.4c2.75,6.1,7.99,10.66,14.38,12.5l33.42,9.85c30,8.82,54.22,31.68,64.78,61.14
			l111.44,310.94c3.27,9.11,5.16,18.67,5.64,28.39c1.02,21.42-4.79,42.18-16.79,60.05l-19.6,28.75c-3.74,5.55-4.9,12.42-3.17,18.8
			c6.77,24.97-0.41,30.85-3.81,32.23l-35.15,12.6c-1.49,0.54-3.16,0.42-4.56-0.36c-1.41-0.76-2.42-2.08-2.78-3.64l-5.13-21.9
			l-232.84,83.45l9.95,20.16c0.71,1.43,0.77,3.1,0.17,4.58c-0.6,1.48-1.8,2.64-3.3,3.17l-35.03,12.56
			C549.9,948,549.05,948.18,548.04,948.18z M345.88,372.77c-0.53,1.36-1.68,6.27,1.79,19.29c2.6,9.57,0.91,19.77-4.63,27.97
			l-19.55,28.82c-15.56,22.92-19.27,52.19-9.92,78.31L425,838.09c2.89,8.06,6.97,15.66,12.12,22.59
			c11.35,15.24,27.03,26.19,45.33,31.67l33.33,9.74c9.56,2.92,17.33,9.73,21.37,18.68c5.59,12.27,9.6,15.33,10.87,16.03l27.88-10
			l-9.96-20.16c-0.71-1.43-0.77-3.11-0.17-4.58c0.6-1.48,1.8-2.63,3.3-3.17l244.67-87.69c1.5-0.54,3.17-0.41,4.56,0.36
			c1.41,0.76,2.42,2.08,2.78,3.64l5.13,21.9l27.82-9.97c0.54-1.33,1.72-6.22-1.82-19.26c-2.58-9.52-0.86-19.73,4.71-28.01
			l19.6-28.75c10.63-15.82,15.78-34.24,14.87-53.23c-0.42-8.61-2.1-17.07-4.99-25.15L774.98,361.79
			c-9.36-26.1-30.82-46.35-57.4-54.18l0,0l-33.39-9.84c-9.52-2.75-17.35-9.55-21.46-18.65c-5.56-12.34-9.58-15.35-10.84-16.03
			l-27.82,9.97l9.95,20.18c0.71,1.43,0.77,3.1,0.17,4.58c-0.6,1.48-1.8,2.63-3.3,3.17l-244.67,87.69c-1.49,0.54-3.15,0.42-4.57-0.36
			c-1.4-0.76-2.41-2.09-2.77-3.64l-5.13-21.9L345.88,372.77z M602.33,648.44c-17.29,0-33.52-10.7-39.67-27.85
			c-5.33-14.87-1.95-31.18,8.54-42.58l-39.75-110.92c-2.63-7.33,1.17-15.42,8.45-18.04l1.5-0.54c7.32-2.63,15.44,1.19,18.07,8.53
			l38.49,107.4c6.47-0.65,13.07,0.2,19.26,2.55l100.8-132.53c4.05-5.25,11.27-6.99,17.21-4.18c3.43,1.62,6.03,4.48,7.31,8.05
			c1.61,4.49,0.78,9.62-2.17,13.38L637.57,583.4c1.78,2.7,3.24,5.64,4.37,8.79c3.79,10.56,3.23,21.99-1.59,32.16
			c-4.81,10.16-13.26,17.83-23.81,21.61C611.84,647.64,607.04,648.44,602.33,648.44z M546.13,458.9c-0.32,0-0.65,0.05-0.96,0.16
			l-1.5,0.54c-1.47,0.53-2.22,2.19-1.68,3.71l40.95,114.26c0.77,2.13,0.17,4.51-1.51,6.04c-9.22,8.36-12.46,21.39-8.23,33.19
			c2.78,7.76,8.43,13.97,15.9,17.48c7.47,3.52,15.86,3.92,23.65,1.13c7.73-2.77,13.93-8.4,17.46-15.86
			c3.53-7.46,3.95-15.84,1.17-23.59c-1.21-3.39-2.94-6.42-5.14-9.02c-1.72-2.02-1.78-4.98-0.14-7.07l105.43-135.06
			c0-0.01,0.01-0.01,0.01-0.01c0.66-0.85,0.7-1.96,0.44-2.68c-0.28-0.78-0.8-1.35-1.55-1.71c-1.23-0.58-2.69-0.22-3.52,0.87
			L623.45,577.31c-1.64,2.16-4.59,2.85-7.01,1.59c-6.54-3.34-13.98-4.31-20.92-2.7c-2.73,0.64-5.57-0.89-6.53-3.57l-40.07-111.8
			C548.49,459.65,547.34,458.9,546.13,458.9z"/>
	</g>
	<path class="st3" d="M495.99,472.55c0.84,2.34,1.45,4.71,1.79,7.09c0.01,0.02,0.01,0.02,0.01,0.02c0.07,0.51,0.13,1.04,0.19,1.58
		c0.02,0.36,0.06,0.75,0.09,1.14c0.07,0.72,0.11,1.51,0.13,2.3c0.02,0.42,0.03,0.84,0.03,1.27c0.01,0.1,0.02,0.21,0.01,0.32
		c0.07,15.59-6.61,43.81-43.59,81.27c-52.54-5.45-75.61-23.12-85.41-35.2c-0.04-0.04-0.08-0.08-0.1-0.12
		c-0.28-0.33-0.53-0.66-0.78-1c-0.49-0.62-0.96-1.26-1.36-1.86c-0.22-0.32-0.44-0.64-0.66-0.94c-0.3-0.45-0.59-0.91-0.86-1.35
		c0,0,0,0-0.01-0.02c-1.24-2.06-2.28-4.27-3.12-6.61c-7.11-19.84,3.23-41.72,23.07-48.83c13.13-4.71,27.11-1.77,37.15,6.46
		c2.5-12.73,11.46-23.88,24.57-28.58C467.02,442.36,488.88,452.71,495.99,472.55z"/>
	<g>
		<path class="st4" d="M454.65,573.14c-0.19,0-0.38-0.01-0.58-0.03c-53.22-5.52-77.87-23.3-89.18-37.24
			c-0.06-0.07-0.12-0.15-0.18-0.22l-0.85-1.09c-0.49-0.61-1.05-1.37-1.53-2.1c-0.01-0.01-0.68-0.97-0.68-0.98l-0.94-1.47
			c-0.05-0.09-0.11-0.18-0.16-0.28c-1.36-2.26-2.52-4.75-3.46-7.4c-3.94-11-3.36-22.89,1.64-33.47c5-10.59,13.81-18.58,24.82-22.52
			c12.02-4.33,24.95-3.21,35.86,2.83c4.62-11.49,14.02-20.71,25.86-24.96c22.71-8.11,47.84,3.71,55.99,26.46l0,0
			c0.97,2.71,1.66,5.45,2.06,8.16l0.22,1.75l-5.48,1.81l5.57-0.55c0.09,0.85,0.14,1.79,0.16,2.73l0.03,1.46
			c0.09,18.14-7.69,47.46-45.19,85.45C457.58,572.54,456.14,573.14,454.65,573.14z M373.46,528.68
			c8.57,10.36,29.52,27.34,79.09,32.99c34.96-36.14,40.15-62.67,40.09-75.37c0-0.04-0.04-1.46-0.04-1.5
			c-0.01-0.65-0.05-1.28-0.1-1.87l-0.25-2.42c-0.31-2.07-0.83-4.08-1.54-6.07c-6.06-16.91-24.73-25.74-41.67-19.68
			c-10.73,3.85-18.76,13.19-20.96,24.39c-0.38,1.94-1.75,3.53-3.6,4.2c-1.85,0.65-3.92,0.31-5.44-0.94
			c-8.97-7.35-20.82-9.43-31.71-5.52c-8.19,2.93-14.75,8.88-18.47,16.76c-3.72,7.88-4.15,16.72-1.22,24.91
			c0.73,2.03,1.61,3.91,2.64,5.6c0.03,0.05,0.05,0.1,0.09,0.15l0.68,1.07c0.95,1.38,1.32,1.88,1.72,2.37
			C372.9,527.91,373.17,528.28,373.46,528.68z"/>
	</g>
</g>
</svg>
