<?xml version="1.0" encoding="utf-8"?>
<!-- Generator: Adobe Illustrator 26.2.1, SVG Export Plug-In . SVG Version: 6.00 Build 0)  -->
<svg version="1.1" id="Layer_1" xmlns="http://www.w3.org/2000/svg" xmlns:xlink="http://www.w3.org/1999/xlink" x="0px" y="0px"
	 viewBox="0 0 1200 1200" style="enable-background:new 0 0 1200 1200;" xml:space="preserve">
<style type="text/css">
	.st0{fill:#FFFFFF;}
	.st1{fill:#EDEDD3;}
	.st2{fill:#BCD167;}
	.st3{fill:#E6EBB7;}
	.st4{fill:#154D72;}
	.st5{fill:#9FB32A;}
	.st6{fill:none;}
</style>
<g>
	<path class="st0" d="M982.29,430.04c-7.63,183.77-127.27,307.56-202.64,343.59c-1.37-69.72-31.06-122.63-67.58-161.5
		c40.45-24.48,88.21-58.76,103.32-161.29c15.13-102.61-181.96-148.39-181.96-148.39s-193.3-60.1-232.09,36.1
		c-38.77,96.11-14.87,149.83,7.66,191.39c-51.15,15.09-103.5,45.75-139.91,105.23c-46.84-69.17-87.54-236.45-1.28-398.89
		c88.3-166.55,404.11-75.79,404.11-75.79S990.24,241.69,982.29,430.04z"/>
	<path class="st0" d="M269.09,635.16c36.41-59.47,88.77-90.13,139.91-105.23c84.11-24.79,164.76-7.49,164.76-7.49
		s78.34,25.81,138.31,89.68c36.51,38.87,66.2,91.78,67.58,161.5c0.56,25.55-2.79,53.42-10.99,83.64
		c-67.38,248.43-225.84,216.87-336.39,186.89c-110.64-30.01-263.33-82.84-195.96-331.27C244.51,682.67,255.69,656.92,269.09,635.16z
		"/>
	<g>
		<path class="st4" d="M712.07,616.56c-1.51,0-2.97-0.76-3.8-2.14c-1.27-2.1-0.6-4.83,1.5-6.1
			c43.29-26.19,86.76-59.99,101.22-158.14c14.36-97.39-176.64-142.97-178.57-143.41c-2.21-0.69-190.15-57.86-226.96,33.42
			c-37.11,92.01-16.67,143.13,7.44,187.62c1.17,2.16,0.37,4.85-1.79,6.02c-2.15,1.17-4.85,0.37-6.02-1.79
			c-24.03-44.31-46.43-99.59-7.88-195.18c39.86-98.85,229.47-41.18,237.53-38.67c7.9,1.82,200.58,47.83,185.04,153.29
			c-15.03,101.96-62.29,138.34-105.41,164.44C713.65,616.35,712.86,616.56,712.07,616.56z"/>
	</g>
	<g>
		<path class="st4" d="M779.65,778.06c-1.66,0-3.25-0.93-4.01-2.52c-1.06-2.21-0.12-4.87,2.09-5.93
			c73.38-35.07,192.59-158.33,200.12-339.76c7.71-182.57-303.87-264.27-307.02-265.07c-3.25-0.93-313.49-87.88-399.09,73.57
			c-85.17,160.39-44.57,326.98,1.03,394.32c1.38,2.03,0.84,4.79-1.19,6.17c-2.03,1.39-4.79,0.85-6.17-1.19
			c-46.76-69.05-88.52-239.63-1.52-403.46c88.96-167.81,396.22-81.72,409.27-77.97c13.01,3.31,321.59,84.26,313.57,274.02
			c-7.69,185.32-129.92,311.44-205.16,347.4C780.94,777.92,780.29,778.06,779.65,778.06z"/>
	</g>
	<g>
		<path class="st4" d="M552.84,1069.17c-45.25,0-88.52-11.73-121.73-20.74c-94.53-25.64-270.5-73.38-199.08-336.71
			c7.97-29.43,19.17-55.97,33.28-78.89c1.28-2.09,4.01-2.77,6.11-1.46c2.09,1.28,2.74,4.03,1.45,6.11
			c-13.66,22.2-24.52,47.96-32.27,76.57c-63.75,235.08,66.11,291.44,192.83,325.82c91.51,24.8,261.85,71,330.94-183.77
			c7.76-28.63,11.41-56.35,10.83-82.38c-0.05-2.45,1.89-4.49,4.34-4.54c0.03,0,0.07,0,0.1,0c2.41,0,4.39,1.93,4.44,4.35
			c0.59,26.88-3.15,55.44-11.14,84.9C726.63,1029.22,636.35,1069.17,552.84,1069.17z"/>
	</g>
	<g>
		<path class="st4" d="M712.07,616.56c-1.18,0-2.36-0.47-3.24-1.41c-58.46-62.24-135.69-88.24-136.47-88.5
			c-0.34-0.04-80.1-16.63-162.11,7.53c-2.35,0.71-4.82-0.65-5.51-3c-0.69-2.36,0.65-4.82,3.01-5.52
			c84.2-24.83,166.12-7.74,166.94-7.57c1.25,0.39,80.56,27.04,140.61,90.99c1.68,1.79,1.59,4.6-0.2,6.27
			C714.25,616.16,713.16,616.56,712.07,616.56z"/>
	</g>
	
		<ellipse transform="matrix(0.7071 -0.7071 0.7071 0.7071 -406.5482 585.0726)" class="st2" cx="502.97" cy="783.28" rx="203.06" ry="203.06"/>
	<g>
		<path class="st4" d="M217.57,456.44c-1.57,0-3.1-0.83-3.9-2.31c-1.18-2.16-0.38-4.86,1.77-6.03l177.63-97.08
			c2.16-1.18,4.85-0.39,6.03,1.76c1.18,2.16,0.38,4.86-1.77,6.03L219.7,455.89C219.02,456.26,218.29,456.44,217.57,456.44z"/>
	</g>
	<g>
		<path class="st4" d="M223.16,513.74c-1.54,0-3.04-0.81-3.86-2.24c-1.22-2.13-0.48-4.84,1.65-6.06l158.11-90.25
			c2.14-1.2,4.85-0.47,6.06,1.66c1.22,2.13,0.48,4.84-1.65,6.06l-158.11,90.25C224.66,513.55,223.91,513.74,223.16,513.74z"/>
	</g>
	<g>
		<path class="st4" d="M239.54,578.45c-1.44,0-2.85-0.7-3.71-1.99c-1.35-2.05-0.79-4.81,1.25-6.16l146.97-97.37
			c2.03-1.34,4.8-0.79,6.16,1.25c1.35,2.05,0.79,4.81-1.25,6.16l-146.97,97.37C241.24,578.2,240.38,578.45,239.54,578.45z"/>
	</g>
	<g>
		<path class="st4" d="M268.25,641.12c-0.75,0-1.51-0.19-2.21-0.59c-2.13-1.22-2.86-3.94-1.64-6.06
			c19.02-33.1,46.24-61.19,78.71-81.22c2.1-1.28,4.82-0.63,6.12,1.45c1.28,2.09,0.64,4.82-1.45,6.12
			c-31.23,19.25-57.39,46.25-75.68,78.08C271.29,640.32,269.79,641.12,268.25,641.12z"/>
	</g>
	<g>
		<path class="st4" d="M779.06,778.05c-2.24,0-4.16-1.68-4.41-3.97c-4.98-45.82-22.09-89.64-49.48-126.71
			c-1.46-1.97-1.04-4.75,0.94-6.21c1.98-1.45,4.75-1.04,6.21,0.94c28.32,38.33,46.01,83.64,51.16,131.03
			c0.26,2.44-1.5,4.62-3.93,4.89C779.38,778.05,779.22,778.05,779.06,778.05z"/>
	</g>
</g>
</svg>
